<?xml version="1.0" encoding="UTF-8" standalone="no"?>
<!-- Created with Inkscape (http://www.inkscape.org/) -->

<svg
   xmlns:dc="http://purl.org/dc/elements/1.1/"
   xmlns:cc="http://creativecommons.org/ns#"
   xmlns:rdf="http://www.w3.org/1999/02/22-rdf-syntax-ns#"
   xmlns:svg="http://www.w3.org/2000/svg"
   xmlns="http://www.w3.org/2000/svg"
   xmlns:sodipodi="http://sodipodi.sourceforge.net/DTD/sodipodi-0.dtd"
   xmlns:inkscape="http://www.inkscape.org/namespaces/inkscape"
   width="53"
   height="31.799999"
   viewBox="0 0 14.022917 8.41375"
   version="1.1"
   id="svg8"
   inkscape:version="0.92.1 r"
   sodipodi:docname="logo_simple.svg"
   inkscape:export-filename="/home/daniel/shady/data/images/shady_logo_title.png"
   inkscape:export-xdpi="11.218333"
   inkscape:export-ydpi="11.218333">
  <defs
     id="defs2">
    <filter
       inkscape:label="Torn Edges"
       inkscape:menu="Distort"
       inkscape:menu-tooltip="Displace the outside of shapes and pictures without altering their content"
       height="1.4"
       y="-0.2"
       width="1.4"
       x="-0.2"
       style="color-interpolation-filters:sRGB;"
       id="filter4841">
      <feTurbulence
         baseFrequency="0.05"
         numOctaves="5"
         type="fractalNoise"
         result="result91"
         id="feTurbulence4835" />
      <feDisplacementMap
         scale="25"
         result="result5"
         xChannelSelector="R"
         in="SourceGraphic"
         in2="result91"
         id="feDisplacementMap4837" />
      <feComposite
         in="SourceGraphic"
         operator="atop"
         in2="result5"
         id="feComposite4839" />
    </filter>
  </defs>
  <sodipodi:namedview
     id="base"
     pagecolor="#ffffff"
     bordercolor="#666666"
     borderopacity="1.0"
     inkscape:pageopacity="0.0"
     inkscape:pageshadow="2"
     inkscape:zoom="22.4"
     inkscape:cx="-19.99581"
     inkscape:cy="16.374787"
     inkscape:document-units="mm"
     inkscape:current-layer="g4727"
     showgrid="false"
     inkscape:window-width="1600"
     inkscape:window-height="845"
     inkscape:window-x="0"
     inkscape:window-y="27"
     inkscape:window-maximized="1"
     units="px" />
  <metadata
     id="metadata5">
    <rdf:RDF>
      <cc:Work
         rdf:about="">
        <dc:format>image/svg+xml</dc:format>
        <dc:type
           rdf:resource="http://purl.org/dc/dcmitype/StillImage" />
        <dc:title></dc:title>
      </cc:Work>
    </rdf:RDF>
  </metadata>
  <g
     inkscape:label="Layer 1"
     inkscape:groupmode="layer"
     id="layer1"
     transform="translate(0,-288.58624)">
    <g
       id="g4727">
      <path
         sodipodi:nodetypes="czzzc"
         inkscape:connector-curvature="0"
         id="path4583"
         d="m 3.1183034,294.82663 c 0.6968936,1.45284 5.2534939,1.18118 6.1184896,-0.0236 0.864996,-1.2048 0.7260835,-5.40243 -1.110305,-5.76415 -1.8363885,-0.36171 -5.7050783,4.33492 -5.0081846,5.78777 z"
         style="fill:#80c8c8;stroke:none;stroke-width:0.25;stroke-linecap:butt;stroke-linejoin:miter;stroke-opacity:1;fill-opacity:1"
         inkscape:export-xdpi="3873.5801"
         inkscape:export-ydpi="3873.5801" />
      <path
         id="path4591"
         transform="matrix(0.23377547,0,0,0.23377547,0.63326019,288.81722)"
         d="M 30.089844,1.6425781 31.179688,4.6523438 26.226562,6.4433594 25.111328,3.3632812 C 25.003573,3.4302278 24.89539,3.5000768 24.787109,3.5703125 L 25.873047,6.5722656 20.925781,8.3613281 20.466797,7.09375 c -0.100405,0.097136 -0.198976,0.1981434 -0.298828,0.296875 l 0.398437,1.1015625 -2.199218,0.7949219 c -0.176323,0.1981049 -0.356616,0.3903825 -0.529297,0.5917968 l 2.855468,-1.0332031 1.792969,4.9531249 -4.949219,1.789063 -1.333984,-3.689453 c -0.0929,0.122802 -0.176547,0.245946 -0.267578,0.36914 l 1.248047,3.449219 -4.333985,1.568359 c -0.07795,0.161661 -0.170222,0.327013 -0.242187,0.486328 l 4.703125,-1.701172 1.792969,4.953126 -4.953125,1.791015 -1.695313,-4.6875 c -0.07364,0.172143 -0.148845,0.344949 -0.214844,0.513672 l 1.556641,4.302734 -1.970703,0.712891 c 0.05712,0.112336 0.122177,0.221324 0.191406,0.328125 l 1.908203,-0.689453 1.023438,2.832031 c 0.147916,0.05987 0.30613,0.112844 0.460937,0.167969 l -1.130859,-3.126953 4.953125,-1.791016 1.791016,4.951172 -2.126954,0.769531 c 0.277671,0.03596 0.553294,0.07111 0.837891,0.09766 l 1.416016,-0.511718 0.222656,0.617187 c 0.133742,0.0042 0.269915,-3.5e-4 0.404297,0.002 l -0.271485,-0.748046 4.949219,-1.789063 0.773438,2.138672 c 0.128364,-0.02147 0.251899,-0.04916 0.378906,-0.07227 l -0.794922,-2.195312 4.947266,-1.791016 0.871093,2.410156 c 0.110633,-0.05656 0.234575,-0.107343 0.339844,-0.166015 l -0.857422,-2.371094 3.830078,-1.386719 c 0.04643,-0.141087 0.08198,-0.301673 0.125,-0.449219 l -4.083984,1.478516 -1.791016,-4.951172 4.953125,-1.791015 1.306641,3.613281 c 0.04509,-0.244404 0.09549,-0.482419 0.132813,-0.736328 l -1.087891,-3.003906 1.349609,-0.488282 c 9.65e-4,-0.131411 -0.0069,-0.264491 -0.0078,-0.396484 l -1.46875,0.53125 L 33.580078,10.185547 36.25,9.21875 C 36.22231,9.0946201 36.18988,8.9742382 36.16016,8.8515625 l -2.708984,0.9804687 -1.791016,-4.953125 2.417969,-0.875 C 33.998697,3.8973301 33.917068,3.7939765 33.833984,3.6933594 L 31.53125,4.5253906 30.505859,1.6875 C 30.369154,1.668223 30.231906,1.64808 30.089844,1.6425781 Z m 1.216797,3.3632813 1.792968,4.953125 L 28.146484,11.75 26.355469,6.796875 Z M 26,6.9257812 27.792969,11.878906 22.845703,13.667969 21.054688,8.7148438 Z m 7.226562,3.3867188 1.792969,4.953125 -4.953125,1.792969 -1.792968,-4.955078 z m -5.30664,1.919922 1.792969,4.953125 -4.947266,1.791015 -1.792969,-4.955078 z m -5.306641,1.919922 1.792969,4.953125 -4.949219,1.791015 -1.792969,-4.955078 z m 7.226563,3.386718 1.791015,4.951172 -4.947265,1.789063 -1.791016,-4.951172 z m -5.304688,1.917969 1.791016,4.951172 -4.949219,1.792969 -1.791015,-4.953125 z"
         style="color:#000000;font-style:normal;font-variant:normal;font-weight:normal;font-stretch:normal;font-size:medium;line-height:normal;font-family:sans-serif;font-variant-ligatures:normal;font-variant-position:normal;font-variant-caps:normal;font-variant-numeric:normal;font-variant-alternates:normal;font-feature-settings:normal;text-indent:0;text-align:start;text-decoration:none;text-decoration-line:none;text-decoration-style:solid;text-decoration-color:#000000;letter-spacing:normal;word-spacing:normal;text-transform:none;writing-mode:lr-tb;direction:ltr;text-orientation:mixed;dominant-baseline:auto;baseline-shift:baseline;text-anchor:start;white-space:normal;shape-padding:0;clip-rule:nonzero;display:inline;overflow:visible;visibility:visible;opacity:1;isolation:auto;mix-blend-mode:normal;color-interpolation:sRGB;color-interpolation-filters:linearRGB;solid-color:#000000;solid-opacity:1;vector-effect:none;fill:#80ffff;fill-opacity:0.50196078;fill-rule:nonzero;stroke:none;stroke-width:0.37795275;stroke-linecap:butt;stroke-linejoin:miter;stroke-miterlimit:4;stroke-dasharray:none;stroke-dashoffset:0;stroke-opacity:1;filter:url(#filter4841);color-rendering:auto;image-rendering:auto;shape-rendering:auto;text-rendering:auto;enable-background:accumulate"
         inkscape:connector-curvature="0" />
      <path
         style="fill:#004000;fill-opacity:0.1254902;stroke:none;stroke-width:0.57872182;stroke-miterlimit:4;stroke-dasharray:none;stroke-opacity:1"
         d="M 30.041016 1.6367188 C 22.875753 1.4402058 9.2335376 18.266447 11.785156 23.585938 C 12.23837 24.530768 13.131107 25.277442 14.302734 25.851562 L 34.869141 5.2851562 C 33.885528 3.4181442 32.522555 2.0670089 30.714844 1.7109375 C 30.497947 1.6682158 30.272153 1.6430579 30.041016 1.6367188 z "
         transform="matrix(0.26458333,0,0,0.26458333,0,288.58624)"
         id="rect4843" />
      <g
         inkscape:export-filename="/home/daniel/shady/data/images/shady_logo_title.png"
         inkscape:export-ydpi="14.959591"
         inkscape:export-xdpi="14.959591"
         id="text12"
         style="font-style:normal;font-weight:normal;font-size:10.58333302px;line-height:1.25;font-family:sans-serif;letter-spacing:0px;word-spacing:0px;fill:#006450;fill-opacity:1;stroke:#ffffff;stroke-width:0.95377946;stroke-miterlimit:4;stroke-dasharray:none;stroke-opacity:1"
         transform="matrix(0.13105755,0,-0.03411009,0.13105755,-2.0512043,288.76345)"
         aria-label="Shady">
        <path
           sodipodi:nodetypes="ssssscccssccscccccccscccssccscccssscscsssccscsscsccsscccscs"
           inkscape:connector-curvature="0"
           id="path14"
           style="font-style:normal;font-variant:normal;font-weight:normal;font-stretch:normal;font-size:50.79999924px;font-family:Billabong;-inkscape-font-specification:Billabong;fill:#006450;fill-opacity:1;stroke:#ffffff;stroke-width:0.95377946;stroke-miterlimit:4;stroke-dasharray:none;stroke-opacity:1"
           d="m 83.806848,19.087108 c 0,0.338667 -0.06773,0.6096 -0.2032,0.8128 -0.135467,0.2032 -0.3048,0.3556 -0.508,0.4572 -0.2032,0.1016 -0.4064,0.169334 -0.6096,0.2032 -0.2032,0.03387 -0.372533,0.0508 -0.508,0.0508 -0.541867,0 -0.948267,-0.270933 -1.2192,-0.8128 -0.237067,-0.575733 -0.541867,-1.185333 -0.9144,-1.8288 -0.338667,-0.677333 -0.8636,-1.286933 -1.5748,-1.8288 -0.677333,-0.575733 -1.744133,-0.8636 -3.2004,-0.8636 -0.880533,0 -1.659467,0.186267 -2.3368,0.5588 -0.677333,0.372534 -1.253067,0.846667 -1.7272,1.4224 -0.440267,0.575734 -0.778933,1.2192 -1.016,1.9304 -0.2032,0.677334 -0.3048,1.354667 -0.3048,2.032 0,1.083734 0.186267,2.0828 0.5588,2.9972 0.4064,0.880534 0.9652,1.7272 1.6764,2.54 0.7112,0.778934 1.557867,1.557867 2.54,2.3368 0.982133,0.745067 2.048933,1.540934 3.2004,2.3876 0.982133,0.7112 1.9304,1.439334 2.8448,2.1844 0.948267,0.745067 1.778,1.540934 2.4892,2.3876 0.745067,0.846667 1.337733,1.761067 1.778,2.7432 0.440267,0.948267 0.6604,1.9812 0.6604,3.0988 0,1.253067 -0.3556,2.286 -1.0668,3.0988 -0.677333,0.8128 -1.540933,1.456266 -2.5908,1.930399 -1.049867,0.508 -2.218267,0.846667 -3.5052,1.016 -1.253067,0.2032 -2.472267,0.3048 -3.6576,0.3048 -1.185333,0 -2.4384,-0.1016 -3.7592,-0.3048 -1.3208,-0.2032 -2.54,-0.5588 -3.6576,-1.0668 -1.1176,-0.474133 -2.048933,-1.100666 -2.794,-1.879599 -0.7112,-0.745066 -1.0668,-1.6764 -1.0668,-2.794 0,-1.016 0.338667,-1.811866 1.016,-2.3876 0.7112,-0.575733 1.7272,-0.999066 3.048,-1.27 -0.06773,0.2032 -0.220133,0.5588 -0.4572,1.0668 -0.2032,0.474134 -0.3048,1.134534 -0.3048,1.9812 0,0.948267 0.3048,1.710267 0.9144,2.286 0.6096,0.575734 1.337733,1.016 2.1844,1.3208 0.846667,0.3048 1.710267,0.491067 2.5908,0.5588 0.9144,0.1016 1.659467,0.1524 2.2352,0.1524 0.372533,0 0.880533,-0.06773 1.524,-0.2032 0.677333,-0.135466 1.337733,-0.338666 1.9812,-0.6096 0.643467,-0.270933 1.185333,-0.626533 1.6256,-1.0668 0.474133,-0.474133 0.7112,-1.032933 0.7112,-1.6764 0,-0.508 -0.169333,-1.032933 -0.508,-1.5748 -0.3048,-0.575733 -0.728133,-1.151466 -1.27,-1.7272 -0.541867,-0.6096 -1.1684,-1.2192 -1.8796,-1.8288 -0.7112,-0.6096 -1.4732,-1.2192 -2.286,-1.8288 -1.185333,-0.9144 -2.353733,-1.845733 -3.5052,-2.794 -1.151467,-0.948266 -2.1844,-1.9304 -3.0988,-2.9464 -0.9144,-1.016 -1.659467,-2.065866 -2.2352,-3.1496 -0.575733,-1.1176 -0.8636,-2.286 -0.8636,-3.5052 0,-1.862666 0.338667,-3.437466 1.016,-4.7244 0.7112,-1.3208 1.608667,-2.3876 2.6924,-3.2004 1.1176,-0.8128 2.3368,-1.405466 3.6576,-1.778 1.3208,-0.372533 2.607733,-0.5588 3.8608,-0.5588 0.948267,0 1.9304,0.08467 2.9464,0.254 1.049867,0.135467 1.998133,0.3556 2.8448,0.6604 0.880533,0.270934 1.591733,0.643467 2.1336,1.1176 0.575733,0.440267 0.8636,0.9652 0.8636,1.5748 0,0.474134 -0.169333,0.931334 -0.508,1.3716 -0.3048,0.4064 -0.4572,0.8636 -0.4572,1.3716 z" />
      </g>
      <path
         inkscape:export-ydpi="3873.5801"
         inkscape:export-xdpi="3873.5801"
         style="fill:#80e6e6;fill-opacity:1;stroke:none;stroke-width:0.25;stroke-linecap:butt;stroke-linejoin:miter;stroke-opacity:1"
         d="m -7.4650303,294.82663 c 0.696894,1.45284 5.2534947,1.18118 6.1184897,-0.0236 0.86499593,-1.2048 0.72608393,-5.40243 -1.110305,-5.76415 -1.836388,-0.36171 -5.7050777,4.33492 -5.0081847,5.78777 z"
         id="path4850"
         inkscape:connector-curvature="0"
         sodipodi:nodetypes="czzzc" />
      <path
         id="path4852"
         d="m -2.6349816,289.01929 c -1.895809,-0.052 -5.5053117,4.39995 -4.8301957,5.8074 0.119913,0.24998 0.356116,0.44754 0.666109,0.59944 l 5.4415287,-5.44153 c -0.260248,-0.49398 -0.620868,-0.85146 -1.099158,-0.94567 -0.05739,-0.0113 -0.117129,-0.018 -0.178284,-0.0196 z"
         style="fill:#004000;fill-opacity:0.28235295;stroke:none;stroke-width:0.15312015;stroke-miterlimit:4;stroke-dasharray:none;stroke-opacity:1"
         inkscape:connector-curvature="0" />
      <g
         aria-label="Shady"
         transform="matrix(0.13105755,0,-0.03411009,0.13105755,-12.634538,288.76345)"
         style="font-style:normal;font-weight:normal;font-size:10.58333302px;line-height:1.25;font-family:sans-serif;letter-spacing:0px;word-spacing:0px;fill:#006450;fill-opacity:1;stroke:#80e6e6;stroke-width:0.95377946;stroke-miterlimit:4;stroke-dasharray:none;stroke-opacity:1"
         id="g4856"
         inkscape:export-xdpi="14.959591"
         inkscape:export-ydpi="14.959591"
         inkscape:export-filename="/home/daniel/shady/data/images/shady_logo_title.png">
        <path
           d="m 83.806848,19.087108 c 0,0.338667 -0.06773,0.6096 -0.2032,0.8128 -0.135467,0.2032 -0.3048,0.3556 -0.508,0.4572 -0.2032,0.1016 -0.4064,0.169334 -0.6096,0.2032 -0.2032,0.03387 -0.372533,0.0508 -0.508,0.0508 -0.541867,0 -0.948267,-0.270933 -1.2192,-0.8128 -0.237067,-0.575733 -0.541867,-1.185333 -0.9144,-1.8288 -0.338667,-0.677333 -0.8636,-1.286933 -1.5748,-1.8288 -0.677333,-0.575733 -1.744133,-0.8636 -3.2004,-0.8636 -0.880533,0 -1.659467,0.186267 -2.3368,0.5588 -0.677333,0.372534 -1.253067,0.846667 -1.7272,1.4224 -0.440267,0.575734 -0.778933,1.2192 -1.016,1.9304 -0.2032,0.677334 -0.3048,1.354667 -0.3048,2.032 0,1.083734 0.186267,2.0828 0.5588,2.9972 0.4064,0.880534 0.9652,1.7272 1.6764,2.54 0.7112,0.778934 1.557867,1.557867 2.54,2.3368 0.982133,0.745067 2.048933,1.540934 3.2004,2.3876 0.982133,0.7112 1.9304,1.439334 2.8448,2.1844 0.948267,0.745067 1.778,1.540934 2.4892,2.3876 0.745067,0.846667 1.337733,1.761067 1.778,2.7432 0.440267,0.948267 0.6604,1.9812 0.6604,3.0988 0,1.253067 -0.3556,2.286 -1.0668,3.0988 -0.677333,0.8128 -1.540933,1.456266 -2.5908,1.930399 -1.049867,0.508 -2.218267,0.846667 -3.5052,1.016 -1.253067,0.2032 -2.472267,0.3048 -3.6576,0.3048 -1.185333,0 -2.4384,-0.1016 -3.7592,-0.3048 -1.3208,-0.2032 -2.54,-0.5588 -3.6576,-1.0668 -1.1176,-0.474133 -2.048933,-1.100666 -2.794,-1.879599 -0.7112,-0.745066 -1.0668,-1.6764 -1.0668,-2.794 0,-1.016 0.338667,-1.811866 1.016,-2.3876 0.7112,-0.575733 1.7272,-0.999066 3.048,-1.27 -0.06773,0.2032 -0.220133,0.5588 -0.4572,1.0668 -0.2032,0.474134 -0.3048,1.134534 -0.3048,1.9812 0,0.948267 0.3048,1.710267 0.9144,2.286 0.6096,0.575734 1.337733,1.016 2.1844,1.3208 0.846667,0.3048 1.710267,0.491067 2.5908,0.5588 0.9144,0.1016 1.659467,0.1524 2.2352,0.1524 0.372533,0 0.880533,-0.06773 1.524,-0.2032 0.677333,-0.135466 1.337733,-0.338666 1.9812,-0.6096 0.643467,-0.270933 1.185333,-0.626533 1.6256,-1.0668 0.474133,-0.474133 0.7112,-1.032933 0.7112,-1.6764 0,-0.508 -0.169333,-1.032933 -0.508,-1.5748 -0.3048,-0.575733 -0.728133,-1.151466 -1.27,-1.7272 -0.541867,-0.6096 -1.1684,-1.2192 -1.8796,-1.8288 -0.7112,-0.6096 -1.4732,-1.2192 -2.286,-1.8288 -1.185333,-0.9144 -2.353733,-1.845733 -3.5052,-2.794 -1.151467,-0.948266 -2.1844,-1.9304 -3.0988,-2.9464 -0.9144,-1.016 -1.659467,-2.065866 -2.2352,-3.1496 -0.575733,-1.1176 -0.8636,-2.286 -0.8636,-3.5052 0,-1.862666 0.338667,-3.437466 1.016,-4.7244 0.7112,-1.3208 1.608667,-2.3876 2.6924,-3.2004 1.1176,-0.8128 2.3368,-1.405466 3.6576,-1.778 1.3208,-0.372533 2.607733,-0.5588 3.8608,-0.5588 0.948267,0 1.9304,0.08467 2.9464,0.254 1.049867,0.135467 1.998133,0.3556 2.8448,0.6604 0.880533,0.270934 1.591733,0.643467 2.1336,1.1176 0.575733,0.440267 0.8636,0.9652 0.8636,1.5748 0,0.474134 -0.169333,0.931334 -0.508,1.3716 -0.3048,0.4064 -0.4572,0.8636 -0.4572,1.3716 z"
           style="font-style:normal;font-variant:normal;font-weight:normal;font-stretch:normal;font-size:50.79999924px;font-family:Billabong;-inkscape-font-specification:Billabong;fill:#006450;fill-opacity:1;stroke:#80e6e6;stroke-width:0.95377946;stroke-miterlimit:4;stroke-dasharray:none;stroke-opacity:1"
           id="path4854"
           inkscape:connector-curvature="0"
           sodipodi:nodetypes="ssssscccssccscccccccscccssccscccssscscsssccscsscsccsscccscs" />
      </g>
      <path
         sodipodi:nodetypes="czzzc"
         inkscape:connector-curvature="0"
         id="path4858"
         d="m -7.4650303,284.24329 c 0.696894,1.45284 5.2534947,1.18118 6.1184897,-0.0236 0.86499593,-1.2048 0.72608393,-5.40243 -1.110305,-5.76415 -1.836388,-0.36171 -5.7050777,4.33492 -5.0081847,5.78777 z"
         style="fill:#64c8c8;fill-opacity:1;stroke:none;stroke-width:0.25;stroke-linecap:butt;stroke-linejoin:miter;stroke-opacity:1"
         inkscape:export-xdpi="3873.5801"
         inkscape:export-ydpi="3873.5801" />
      <path
         style="fill:#3c7878;fill-opacity:0.60317461;stroke:none;stroke-width:0.99999994px;stroke-linecap:butt;stroke-linejoin:miter;stroke-opacity:1"
         d="m -23.261719,-28.769531 c -2.105467,2.668686 -3.821079,5.480755 -4.671875,7.884765 3.797106,3.993898 8.523972,6.097934 15.268974,5.026506 6.7450018,-1.071428 -5.23882,-9.844309 -10.597099,-12.911271 z"
         transform="matrix(0.26458333,0,0,0.26458333,0,288.58624)"
         id="path4866"
         inkscape:connector-curvature="0"
         sodipodi:nodetypes="cczc" />
      <path
         style="fill:#3c7878;fill-opacity:0.60317461;stroke:none;stroke-width:0.99999994px;stroke-linecap:butt;stroke-linejoin:miter;stroke-opacity:1"
         d="m -15.072904,-33.376149 c -2.742194,2.045541 -2.382537,3.951436 -0.10483,6.28798 2.277707,2.336544 5.7580546,5.568395 11.1406246,8.361607 1.0358611,-3.200517 1.1973958,-8.0686 0.2597656,-12.166016 -4.2081794,-4.418128 -8.5533672,-4.529112 -11.2955602,-2.483571 z"
         transform="matrix(0.26458333,0,0,0.26458333,0,288.58624)"
         id="path4868"
         inkscape:connector-curvature="0"
         sodipodi:nodetypes="zzccz" />
    </g>
    <g
       id="g4737"
       transform="translate(7.4083325)">
      <path
         style="fill:#80c8c8;fill-opacity:1;stroke:none;stroke-width:0.25;stroke-linecap:butt;stroke-linejoin:miter;stroke-opacity:1"
         d="m 3.1183034,294.82663 c 0.6968936,1.45284 5.2534939,1.18118 6.1184896,-0.0236 0.864996,-1.2048 0.7260835,-5.40243 -1.110305,-5.76415 -1.8363885,-0.36171 -5.7050783,4.33492 -5.0081846,5.78777 z"
         id="path4729"
         inkscape:connector-curvature="0"
         sodipodi:nodetypes="czzzc" />
      <path
         style="color:#000000;font-style:normal;font-variant:normal;font-weight:normal;font-stretch:normal;font-size:medium;line-height:normal;font-family:sans-serif;font-variant-ligatures:normal;font-variant-position:normal;font-variant-caps:normal;font-variant-numeric:normal;font-variant-alternates:normal;font-feature-settings:normal;text-indent:0;text-align:start;text-decoration:none;text-decoration-line:none;text-decoration-style:solid;text-decoration-color:#000000;letter-spacing:normal;word-spacing:normal;text-transform:none;writing-mode:lr-tb;direction:ltr;text-orientation:mixed;dominant-baseline:auto;baseline-shift:baseline;text-anchor:start;white-space:normal;shape-padding:0;clip-rule:nonzero;display:inline;overflow:visible;visibility:visible;opacity:1;isolation:auto;mix-blend-mode:normal;color-interpolation:sRGB;color-interpolation-filters:linearRGB;solid-color:#000000;solid-opacity:1;vector-effect:none;fill:#80ffff;fill-opacity:0.50196078;fill-rule:nonzero;stroke:none;stroke-width:0.37795275;stroke-linecap:butt;stroke-linejoin:miter;stroke-miterlimit:4;stroke-dasharray:none;stroke-dashoffset:0;stroke-opacity:1;color-rendering:auto;image-rendering:auto;shape-rendering:auto;text-rendering:auto;enable-background:accumulate"
         d="M 30.089844,1.6425781 31.179688,4.6523438 26.226562,6.4433594 25.111328,3.3632812 C 25.003573,3.4302278 24.89539,3.5000768 24.787109,3.5703125 L 25.873047,6.5722656 20.925781,8.3613281 20.466797,7.09375 c -0.100405,0.097136 -0.198976,0.1981434 -0.298828,0.296875 l 0.398437,1.1015625 -2.199218,0.7949219 c -0.176323,0.1981049 -0.356616,0.3903825 -0.529297,0.5917968 l 2.855468,-1.0332031 1.792969,4.9531249 -4.949219,1.789063 -1.333984,-3.689453 c -0.0929,0.122802 -0.176547,0.245946 -0.267578,0.36914 l 1.248047,3.449219 -4.333985,1.568359 c -0.07795,0.161661 -0.170222,0.327013 -0.242187,0.486328 l 4.703125,-1.701172 1.792969,4.953126 -4.953125,1.791015 -1.695313,-4.6875 c -0.07364,0.172143 -0.148845,0.344949 -0.214844,0.513672 l 1.556641,4.302734 -1.970703,0.712891 c 0.05712,0.112336 0.122177,0.221324 0.191406,0.328125 l 1.908203,-0.689453 1.023438,2.832031 c 0.147916,0.05987 0.30613,0.112844 0.460937,0.167969 l -1.130859,-3.126953 4.953125,-1.791016 1.791016,4.951172 -2.126954,0.769531 c 0.277671,0.03596 0.553294,0.07111 0.837891,0.09766 l 1.416016,-0.511718 0.222656,0.617187 c 0.133742,0.0042 0.269915,-3.5e-4 0.404297,0.002 l -0.271485,-0.748046 4.949219,-1.789063 0.773438,2.138672 c 0.128364,-0.02147 0.251899,-0.04916 0.378906,-0.07227 l -0.794922,-2.195312 4.947266,-1.791016 0.871093,2.410156 c 0.110633,-0.05656 0.234575,-0.107343 0.339844,-0.166015 l -0.857422,-2.371094 3.830078,-1.386719 c 0.04643,-0.141087 0.08198,-0.301673 0.125,-0.449219 l -4.083984,1.478516 -1.791016,-4.951172 4.953125,-1.791015 1.306641,3.613281 c 0.04509,-0.244404 0.09549,-0.482419 0.132813,-0.736328 l -1.087891,-3.003906 1.349609,-0.488282 c 9.65e-4,-0.131411 -0.0069,-0.264491 -0.0078,-0.396484 l -1.46875,0.53125 L 33.580078,10.185547 36.25,9.21875 C 36.22231,9.0946201 36.18988,8.9742382 36.16016,8.8515625 l -2.708984,0.9804687 -1.791016,-4.953125 2.417969,-0.875 C 33.998697,3.8973301 33.917068,3.7939765 33.833984,3.6933594 L 31.53125,4.5253906 30.505859,1.6875 C 30.369154,1.668223 30.231906,1.64808 30.089844,1.6425781 Z m 1.216797,3.3632813 1.792968,4.953125 L 28.146484,11.75 26.355469,6.796875 Z M 26,6.9257812 27.792969,11.878906 22.845703,13.667969 21.054688,8.7148438 Z m 7.226562,3.3867188 1.792969,4.953125 -4.953125,1.792969 -1.792968,-4.955078 z m -5.30664,1.919922 1.792969,4.953125 -4.947266,1.791015 -1.792969,-4.955078 z m -5.306641,1.919922 1.792969,4.953125 -4.949219,1.791015 -1.792969,-4.955078 z m 7.226563,3.386718 1.791015,4.951172 -4.947265,1.789063 -1.791016,-4.951172 z m -5.304688,1.917969 1.791016,4.951172 -4.949219,1.792969 -1.791015,-4.953125 z"
         transform="matrix(0.26458333,0,0,0.26458333,0,288.58624)"
         id="path4731"
         inkscape:connector-curvature="0" />
      <g
         aria-label="Shady"
         transform="matrix(0.13105755,0,-0.03411009,0.13105755,-2.0262043,288.76345)"
         style="font-style:normal;font-weight:normal;font-size:10.58333302px;line-height:1.25;font-family:sans-serif;letter-spacing:0px;word-spacing:0px;fill:#006450;fill-opacity:1;stroke:#ffffff;stroke-width:0.95377946;stroke-miterlimit:4;stroke-dasharray:none;stroke-opacity:1"
         id="g4735"
         inkscape:export-xdpi="14.959591"
         inkscape:export-ydpi="14.959591"
         inkscape:export-filename="/home/daniel/shady/data/images/shady_logo_title.png">
        <path
           d="m 83.806848,19.087108 c 0,0.338667 -0.06773,0.6096 -0.2032,0.8128 -0.135467,0.2032 -0.3048,0.3556 -0.508,0.4572 -0.2032,0.1016 -0.4064,0.169334 -0.6096,0.2032 -0.2032,0.03387 -0.372533,0.0508 -0.508,0.0508 -0.541867,0 -0.948267,-0.270933 -1.2192,-0.8128 -0.237067,-0.575733 -0.541867,-1.185333 -0.9144,-1.8288 -0.338667,-0.677333 -0.8636,-1.286933 -1.5748,-1.8288 -0.677333,-0.575733 -1.744133,-0.8636 -3.2004,-0.8636 -0.880533,0 -1.659467,0.186267 -2.3368,0.5588 -0.677333,0.372534 -1.253067,0.846667 -1.7272,1.4224 -0.440267,0.575734 -0.778933,1.2192 -1.016,1.9304 -0.2032,0.677334 -0.3048,1.354667 -0.3048,2.032 0,1.083734 0.186267,2.0828 0.5588,2.9972 0.4064,0.880534 0.9652,1.7272 1.6764,2.54 0.7112,0.778934 1.557867,1.557867 2.54,2.3368 0.982133,0.745067 2.048933,1.540934 3.2004,2.3876 0.982133,0.7112 1.9304,1.439334 2.8448,2.1844 0.948267,0.745067 1.778,1.540934 2.4892,2.3876 0.745067,0.846667 1.337733,1.761067 1.778,2.7432 0.440267,0.948267 0.6604,1.9812 0.6604,3.0988 0,1.253067 -0.3556,2.286 -1.0668,3.0988 -0.677333,0.8128 -1.540933,1.456266 -2.5908,1.930399 -1.049867,0.508 -2.218267,0.846667 -3.5052,1.016 -1.253067,0.2032 -2.472267,0.3048 -3.6576,0.3048 -1.185333,0 -2.4384,-0.1016 -3.7592,-0.3048 -1.3208,-0.2032 -2.54,-0.5588 -3.6576,-1.0668 -1.1176,-0.474133 -2.048933,-1.100666 -2.794,-1.879599 -0.7112,-0.745066 -1.0668,-1.6764 -1.0668,-2.794 0,-1.016 0.338667,-1.811866 1.016,-2.3876 0.7112,-0.575733 1.7272,-0.999066 3.048,-1.27 -0.06773,0.2032 -0.220133,0.5588 -0.4572,1.0668 -0.2032,0.474134 -0.3048,1.134534 -0.3048,1.9812 0,0.948267 0.3048,1.710267 0.9144,2.286 0.6096,0.575734 1.337733,1.016 2.1844,1.3208 0.846667,0.3048 1.710267,0.491067 2.5908,0.5588 0.9144,0.1016 1.659467,0.1524 2.2352,0.1524 0.372533,0 0.880533,-0.06773 1.524,-0.2032 0.677333,-0.135466 1.337733,-0.338666 1.9812,-0.6096 0.643467,-0.270933 1.185333,-0.626533 1.6256,-1.0668 0.474133,-0.474133 0.7112,-1.032933 0.7112,-1.6764 0,-0.508 -0.169333,-1.032933 -0.508,-1.5748 -0.3048,-0.575733 -0.728133,-1.151466 -1.27,-1.7272 -0.541867,-0.6096 -1.1684,-1.2192 -1.8796,-1.8288 -0.7112,-0.6096 -1.4732,-1.2192 -2.286,-1.8288 -1.185333,-0.9144 -2.353733,-1.845733 -3.5052,-2.794 -1.151467,-0.948266 -2.1844,-1.9304 -3.0988,-2.9464 -0.9144,-1.016 -1.659467,-2.065866 -2.2352,-3.1496 -0.575733,-1.1176 -0.8636,-2.286 -0.8636,-3.5052 0,-1.862666 0.338667,-3.437466 1.016,-4.7244 0.7112,-1.3208 1.608667,-2.3876 2.6924,-3.2004 1.1176,-0.8128 2.3368,-1.405466 3.6576,-1.778 1.3208,-0.372533 2.607733,-0.5588 3.8608,-0.5588 0.948267,0 1.9304,0.08467 2.9464,0.254 1.049867,0.135467 1.998133,0.3556 2.8448,0.6604 0.880533,0.270934 1.591733,0.643467 2.1336,1.1176 0.575733,0.440267 0.8636,0.9652 0.8636,1.5748 0,0.474134 -0.169333,0.931334 -0.508,1.3716 -0.3048,0.4064 -0.4572,0.8636 -0.4572,1.3716 z"
           style="font-style:normal;font-variant:normal;font-weight:normal;font-stretch:normal;font-size:50.79999924px;font-family:Billabong;-inkscape-font-specification:Billabong;fill:#006450;fill-opacity:1;stroke:#ffffff;stroke-width:0.95377946;stroke-miterlimit:4;stroke-dasharray:none;stroke-opacity:1"
           id="path4733"
           inkscape:connector-curvature="0"
           sodipodi:nodetypes="ssssscccssccscccccccscccssccscccssscscsssccscsscsccsscccscs" />
      </g>
    </g>
  </g>
</svg>
