<?xml version="1.0" encoding="UTF-8" standalone="no"?>
<!-- Created with Inkscape (http://www.inkscape.org/) -->

<svg
   xmlns:dc="http://purl.org/dc/elements/1.1/"
   xmlns:cc="http://creativecommons.org/ns#"
   xmlns:rdf="http://www.w3.org/1999/02/22-rdf-syntax-ns#"
   xmlns:svg="http://www.w3.org/2000/svg"
   xmlns="http://www.w3.org/2000/svg"
   xmlns:sodipodi="http://sodipodi.sourceforge.net/DTD/sodipodi-0.dtd"
   xmlns:inkscape="http://www.inkscape.org/namespaces/inkscape"
   width="200mm"
   height="200mm"
   viewBox="0 0 200 200"
   version="1.1"
   id="svg8"
   sodipodi:docname="shady_new.svg"
   inkscape:version="0.92.2 5c3e80d, 2017-08-06">
  <defs
     id="defs2" />
  <sodipodi:namedview
     id="base"
     pagecolor="#ffffff"
     bordercolor="#666666"
     borderopacity="1.0"
     inkscape:pageopacity="0.0"
     inkscape:pageshadow="2"
     inkscape:zoom="0.7"
     inkscape:cx="384.74157"
     inkscape:cy="508.64168"
     inkscape:document-units="mm"
     inkscape:current-layer="g886"
     showgrid="false"
     inkscape:window-width="1600"
     inkscape:window-height="845"
     inkscape:window-x="0"
     inkscape:window-y="27"
     inkscape:window-maximized="1" />
  <metadata
     id="metadata5">
    <rdf:RDF>
      <cc:Work
         rdf:about="">
        <dc:format>image/svg+xml</dc:format>
        <dc:type
           rdf:resource="http://purl.org/dc/dcmitype/StillImage" />
        <dc:title />
      </cc:Work>
    </rdf:RDF>
  </metadata>
  <g
     inkscape:label="Layer 1"
     inkscape:groupmode="layer"
     id="layer1"
     transform="translate(0,-97)">
    <g
       id="g886"
       transform="translate(-8.200272,40.101026)">
      <path
         sodipodi:nodetypes="ccccscscssscssc"
         inkscape:connector-curvature="0"
         id="path831"
         d="m 151.05697,131.54405 c 6.14719,3.47451 14.16528,-0.53454 14.16528,-0.53454 0,0 4.00904,16.57072 6.94901,20.84703 2.93996,4.27631 2.67269,4.27631 2.67269,4.27631 0,0 4.81086,-5.61266 6.1472,-16.30344 1.33635,-10.69078 -1.32023,-15.99319 -1.32023,-15.99319 0,0 4.52747,9.84599 9.60559,9.84599 5.07812,0 8.28535,-1.60362 8.28535,-1.60362 0,0 -16.30343,27.2615 -17.63978,34.74504 -1.33635,7.48355 1.06907,19.51068 3.74176,22.45064 2.6727,2.93997 -3.47449,-0.53454 -8.55262,0 -5.07812,0.53454 -6.94901,1.06907 -6.94901,1.06907 0,0 0.55076,-2.09507 1.8709,-14.16528 1.57881,-14.43528 -0.26728,-8.81989 -6.14721,-20.57975 -5.87993,-11.75986 -12.82893,-24.05426 -12.82893,-24.05426 z"
         style="fill:#000000;stroke:#ffffff;stroke-width:8;stroke-linecap:butt;stroke-linejoin:miter;stroke-opacity:1" />
      <path
         style="fill:#000000;stroke:none;stroke-width:8;stroke-linecap:butt;stroke-linejoin:miter;stroke-opacity:1"
         d="m 151.05697,131.54405 c 6.14719,3.47451 14.16528,-0.53454 14.16528,-0.53454 0,0 4.00904,16.57072 6.94901,20.84703 2.93996,4.27631 2.67269,4.27631 2.67269,4.27631 0,0 4.81086,-5.61266 6.1472,-16.30344 1.33635,-10.69078 0.26727,-11.75986 0.26727,-11.75986 0,0 2.93997,5.61266 8.01809,5.61266 5.07812,0 8.28535,-1.60362 8.28535,-1.60362 0,0 -16.30343,27.2615 -17.63978,34.74504 -1.33635,7.48355 1.06907,19.51068 3.74176,22.45064 2.6727,2.93997 -3.47449,-0.53454 -8.55262,0 -5.07812,0.53454 -6.94901,1.06907 -6.94901,1.06907 0,0 0.55076,-2.09507 1.8709,-14.16528 1.57881,-14.43528 -0.26728,-8.81989 -6.14721,-20.57975 -5.87993,-11.75986 -12.82893,-24.05426 -12.82893,-24.05426 z"
         id="path890"
         inkscape:connector-curvature="0"
         sodipodi:nodetypes="ccccscscssscssc" />
      <path
         sodipodi:nodetypes="cccssccscccc"
         inkscape:connector-curvature="0"
         id="path826"
         d="m 134.37804,129.87902 c -8.72202,0.33726 -15.61806,3.94568 -15.61806,3.94568 20.47029,22.91966 11.57843,57.94525 11.57843,57.94525 0,0 17.2443,2.96141 26.1962,-10.67499 8.9519,-13.6364 8.99822,-33.69171 -2.11629,-44.05561 -6.33848,-5.91042 -13.67555,-7.40641 -20.04028,-7.16033 z m 8.62467,16.90698 c 1.24529,-0.0548 2.71032,0.19028 4.40392,0.94194 6.77439,3.00661 6.79008,19.38772 2.40424,25.81884 -4.38582,6.43113 -10.62461,5.40228 -10.62461,5.40228 0,0 5.11093,-16.76767 -1.67516,-29.13254 0,0 1.75572,-2.86592 5.49161,-3.03052 z"
         style="fill:#000000;stroke:#ffffff;stroke-width:8;stroke-linecap:butt;stroke-linejoin:miter;stroke-opacity:1" />
      <path
         style="fill:#000000;stroke:none;stroke-width:3;stroke-linecap:butt;stroke-linejoin:miter;stroke-opacity:1"
         d="m 134.37804,129.87902 c -8.72202,0.33726 -15.61806,3.94568 -15.61806,3.94568 20.47029,22.91966 11.57843,57.94525 11.57843,57.94525 0,0 17.2443,2.96141 26.1962,-10.67499 8.9519,-13.6364 8.99822,-33.69171 -2.11629,-44.05561 -6.33848,-5.91042 -13.67555,-7.40641 -20.04028,-7.16033 z m 8.62467,16.90698 c 1.24529,-0.0548 2.71032,0.19028 4.40392,0.94194 6.77439,3.00661 6.79008,19.38772 2.40424,25.81884 -4.38582,6.43113 -10.62461,5.40228 -10.62461,5.40228 0,0 5.11093,-16.76767 -1.67516,-29.13254 0,0 1.75572,-2.86592 5.49161,-3.03052 z"
         id="path845"
         inkscape:connector-curvature="0"
         sodipodi:nodetypes="cccssccscccc" />
      <path
         inkscape:connector-curvature="0"
         id="path821"
         d="m 105.60645,127.6289 c 0,0 -5.800887,5.69996 -10.961084,26.2692 -4.14846,16.53637 -3.0241,38.93148 -3.0241,38.93148 4.724707,-1.70089 7.937567,-0.9448 10.016434,0.18913 l 2.07895,1.13378 c 0,0 -3.02382,-12.85104 -1.32292,-19.65461 1.70089,-6.80357 2.83497,-7.37061 2.83497,-7.37061 0,0 3.59085,2.83497 7.37061,2.83497 3.77976,0 5.48028,-1.70067 5.48028,-1.70067 0,0 2.45722,-0.75632 2.45722,9.44903 0,10.20536 -4.33462,17.85477 -4.33462,17.85477 0,0 1.60657,-4.49197 8.30337,-4.6256 4.72376,-0.0943 7.74836,1.88981 7.74836,1.88981 0,0 -0.37827,-30.80477 -8.31577,-45.92382 -7.9375,-15.11905 -18.3317,-19.27686 -18.3317,-19.27686 z m 3.40186,13.22917 c 0,0 2.0788,1.323 4.53564,4.72478 2.45685,3.40179 3.40186,12.47314 3.40186,12.47314 0,0 -6.80357,-3.21295 -11.90625,-0.18914 0,0 -0.37813,-3.96845 1.13378,-10.20506 1.5119,-6.23661 2.83497,-6.80372 2.83497,-6.80372 z"
         style="fill:#000000;stroke:#ffffff;stroke-width:8;stroke-linecap:butt;stroke-linejoin:miter;stroke-opacity:1"
         sodipodi:nodetypes="cscccccscscscsccscccc" />
      <path
         sodipodi:nodetypes="cscccccscscscsccscccc"
         style="fill:#000000;stroke:none;stroke-width:8;stroke-linecap:butt;stroke-linejoin:miter;stroke-opacity:1"
         d="m 105.60645,127.6289 c 0,0 -5.800887,5.69996 -10.961084,26.2692 -4.14846,16.53637 -3.0241,38.93148 -3.0241,38.93148 4.724707,-1.70089 7.937567,-0.9448 10.016434,0.18913 l 2.07895,1.13378 c 0,0 -3.02382,-12.85104 -1.32292,-19.65461 1.70089,-6.80357 2.83497,-7.37061 2.83497,-7.37061 0,0 3.59085,2.83497 7.37061,2.83497 3.77976,0 5.48028,-1.70067 5.48028,-1.70067 0,0 2.45722,-0.75632 2.45722,9.44903 0,10.20536 -2.07895,14.74122 -2.07895,14.74122 0,0 1.88996,-1.51205 6.0477,-1.51205 4.7247,0 7.74836,1.88981 7.74836,1.88981 0,0 -0.37827,-30.80477 -8.31577,-45.92382 -7.9375,-15.11905 -18.3317,-19.27686 -18.3317,-19.27686 z m 3.40186,13.22917 c 0,0 2.0788,1.323 4.53564,4.72478 2.45685,3.40179 3.40186,12.47314 3.40186,12.47314 0,0 -6.80357,-3.21295 -11.90625,-0.18914 0,0 -0.37813,-3.96845 1.13378,-10.20506 1.5119,-6.23661 2.83497,-6.80372 2.83497,-6.80372 z"
         id="path892"
         inkscape:connector-curvature="0" />
      <path
         sodipodi:nodetypes="ccccscccscscscscscscsccc"
         inkscape:connector-curvature="0"
         id="path819"
         d="m 57.245952,131.64153 c 6.147196,30.46873 -5.345393,61.56333 -5.345393,61.56333 0,0 7.483549,-3.20724 11.759861,0 4.276312,3.20723 9.087163,-0.53454 9.087163,-0.53454 0,0 -5.518166,-3.22585 -5.61266,-14.52389 -0.122941,-14.69931 -0.935443,-15.16754 -0.935443,-15.16754 0,0 3.140417,2.53905 8.753076,1.46997 5.612662,-1.06907 6.414472,-3.00677 6.414472,-3.00677 0,0 1.654086,5.0354 -0.334086,19.2011 l -2.138161,15.23436 c 0,0 5.879927,-1.06908 8.819897,-1.06908 2.939955,0 6.949005,1.60362 6.949005,1.60362 0,0 -5.77395,-30.03004 -5.345384,-50.338 l 0.529167,-25.07499 c 0,0 -2.132788,7.70247 -5.607298,8.50428 -3.4745,0.80181 -9.594835,-4.78399 -9.594835,-4.78399 0,0 5.051258,7.99122 5.051258,17.88019 0,9.88897 1.469987,13.22984 1.469987,13.22984 0,0 -3.232164,-3.32464 -8.018092,-0.93544 -6.799354,3.39433 -6.414467,1.33635 -6.414467,1.33635 0,0 -1.403164,-4.27632 3.674955,-16.57072 5.078121,-12.29439 -0.801809,-11.28138 -0.801809,-11.28138 0,0 -3.006782,3.53058 -6.748554,3.79785 -3.741775,0.26726 -5.612659,-0.53455 -5.612659,-0.53455 z"
         style="fill:#000000;stroke:#ffffff;stroke-width:8;stroke-linecap:butt;stroke-linejoin:miter;stroke-opacity:1" />
      <path
         style="fill:#000000;stroke:none;stroke-width:3;stroke-linecap:butt;stroke-linejoin:miter;stroke-opacity:1"
         d="m 57.245952,131.64153 c 6.147196,30.46873 -5.345393,61.56333 -5.345393,61.56333 0,0 7.483549,-3.20724 11.759861,0 4.276312,3.20723 9.087163,-0.53454 9.087163,-0.53454 0,0 -5.61266,0.17594 -5.61266,-14.52389 0,-14.69982 -0.935443,-15.16754 -0.935443,-15.16754 0,0 3.140417,2.53905 8.753076,1.46997 5.612662,-1.06907 6.414472,-3.00677 6.414472,-3.00677 0,0 1.654086,5.0354 -0.334086,19.2011 l -2.138161,15.23436 c 0,0 5.879927,-1.06908 8.819897,-1.06908 2.939955,0 6.949005,1.60362 6.949005,1.60362 0,0 -5.345384,-30.02552 -5.345384,-50.338 V 125.7616 c 0,0 -1.603621,2.93997 -5.078131,3.74178 -3.4745,0.80181 -6.949002,-2.13816 -6.949002,-2.13816 0,0 2.405425,5.34539 2.405425,15.23436 0,9.88897 1.469987,13.22984 1.469987,13.22984 0,0 -3.232164,-3.32464 -8.018092,-0.93544 -6.799354,3.39433 -6.414467,1.33635 -6.414467,1.33635 0,0 -1.403164,-4.27632 3.674955,-16.57072 5.078121,-12.29439 -0.801809,-10.22305 -0.801809,-10.22305 0,0 -3.006782,2.47225 -6.748554,2.73952 -3.741775,0.26726 -5.612659,-0.53455 -5.612659,-0.53455 z"
         id="path841"
         inkscape:connector-curvature="0"
         sodipodi:nodetypes="ccccscccscscscscscscsccc" />
      <path
         sodipodi:nodetypes="ccccscscsczcsccc"
         inkscape:connector-curvature="0"
         id="path817"
         d="m 16.875584,152.7013 c 16.036172,-11.75986 23.786987,-32.87415 23.786987,-32.87415 0,0 5.345391,6.68174 11.225321,8.81989 5.879931,2.13816 11.225321,2.6727 11.225321,2.6727 0,0 -17.37252,8.28535 -22.985179,14.16528 -5.612662,5.87993 -6.68174,6.94901 -6.68174,6.94901 0,0 11.237768,-2.70968 17.639789,-0.53454 4.902563,1.66569 7.216277,4.54358 7.216277,4.54358 0,0 -16.640995,10.44165 -19.143178,23.51972 L 36.653528,193.059 c 0,0 -7.095035,-3.79278 -10.657373,-3.64155 -3.562337,0.15122 -6.982415,1.23612 -6.982415,1.23612 0,0 12.540154,-13.93677 16.57071,-23.51972 3.821445,-9.08577 1.603618,-9.33683 1.603618,-9.33683 0,0 -8.552624,5.32779 -14.165286,3.4569 -5.612659,-1.87088 -6.147198,-8.55262 -6.147198,-8.55262 z"
         style="fill:#000000;stroke:#ffffff;stroke-width:8;stroke-linecap:butt;stroke-linejoin:miter;stroke-opacity:1" />
      <path
         style="fill:#000000;stroke:none;stroke-width:8;stroke-linecap:butt;stroke-linejoin:miter;stroke-opacity:1"
         d="m 16.346417,152.7013 c 16.036172,-11.75986 23.786987,-32.87415 23.786987,-32.87415 0,0 5.345391,6.68174 11.225321,8.81989 5.879931,2.13816 11.225321,2.6727 11.225321,2.6727 0,0 -17.37252,8.28535 -22.985179,14.16528 -5.612662,5.87993 -6.68174,6.94901 -6.68174,6.94901 0,0 11.225321,-2.6727 17.639789,-0.53454 6.414468,2.13816 7.216277,4.54358 7.216277,4.54358 0,0 -16.640995,10.44165 -19.143178,23.51972 L 36.124361,193.059 c 0,0 -7.095035,-3.79278 -10.657373,-3.64155 -3.562337,0.15122 -6.982415,1.23612 -6.982415,1.23612 0,0 12.540154,-13.93677 16.57071,-23.51972 3.821445,-9.08577 1.603618,-9.33683 1.603618,-9.33683 0,0 -8.552624,5.32779 -14.165286,3.4569 -5.612659,-1.87088 -6.147198,-8.55262 -6.147198,-8.55262 z"
         id="path839"
         inkscape:connector-curvature="0"
         sodipodi:nodetypes="ccccscscsczcsccc" />
    </g>
  </g>
</svg>
