<?xml version="1.0" encoding="UTF-8" standalone="no"?>
<!-- Created with Inkscape (http://www.inkscape.org/) -->

<svg
   xmlns:dc="http://purl.org/dc/elements/1.1/"
   xmlns:cc="http://creativecommons.org/ns#"
   xmlns:rdf="http://www.w3.org/1999/02/22-rdf-syntax-ns#"
   xmlns:svg="http://www.w3.org/2000/svg"
   xmlns="http://www.w3.org/2000/svg"
   xmlns:xlink="http://www.w3.org/1999/xlink"
   xmlns:sodipodi="http://sodipodi.sourceforge.net/DTD/sodipodi-0.dtd"
   xmlns:inkscape="http://www.inkscape.org/namespaces/inkscape"
   width="80mm"
   height="80mm"
   viewBox="0 0 80 80"
   version="1.1"
   id="svg4535"
   inkscape:version="0.92.2 5c3e80d, 2017-08-06"
   sodipodi:docname="shady_other_logo.svg"
   inkscape:export-filename="/home/daniel/shady/data/images/shady_other_logo.svg.png"
   inkscape:export-xdpi="162.56"
   inkscape:export-ydpi="162.56">
  <defs
     id="defs4529">
    <linearGradient
       inkscape:collect="always"
       id="linearGradient1029">
      <stop
         style="stop-color:#009696;stop-opacity:1;"
         offset="0"
         id="stop1025" />
      <stop
         style="stop-color:#009696;stop-opacity:0;"
         offset="1"
         id="stop1027" />
    </linearGradient>
    <linearGradient
       inkscape:collect="always"
       xlink:href="#linearGradient1029"
       id="linearGradient1031"
       x1="142.70071"
       y1="564.61139"
       x2="365.71112"
       y2="654.70239"
       gradientUnits="userSpaceOnUse" />
  </defs>
  <sodipodi:namedview
     id="base"
     pagecolor="#ffffff"
     bordercolor="#666666"
     borderopacity="1.0"
     inkscape:pageopacity="0.0"
     inkscape:pageshadow="2"
     inkscape:zoom="0.3535534"
     inkscape:cx="-80.179752"
     inkscape:cy="512.70097"
     inkscape:document-units="mm"
     inkscape:current-layer="layer1"
     showgrid="false"
     inkscape:window-width="1600"
     inkscape:window-height="845"
     inkscape:window-x="0"
     inkscape:window-y="27"
     inkscape:window-maximized="1" />
  <metadata
     id="metadata4532">
    <rdf:RDF>
      <cc:Work
         rdf:about="">
        <dc:format>image/svg+xml</dc:format>
        <dc:type
           rdf:resource="http://purl.org/dc/dcmitype/StillImage" />
        <dc:title></dc:title>
      </cc:Work>
    </rdf:RDF>
  </metadata>
  <g
     inkscape:label="Layer 1"
     inkscape:groupmode="layer"
     id="layer1"
     transform="translate(0,-217)">
    <g
       id="g1453"
       transform="matrix(0.74478986,0,0,0.74478986,-8.1792102,147.66777)">
      <path
         sodipodi:nodetypes="ccccccccccccscscsccccsccscscccccc"
         inkscape:connector-curvature="0"
         id="path5110"
         transform="scale(0.26458333)"
         d="M 82.738283,556.74805 C 125.93074,703.32677 229.33594,698.88086 229.33594,698.88086 h 26.59765 c -9.61818,0 -19.57111,-0.8238 -29.85937,-2.47266 -10.28827,-1.64882 -19.43006,-4.53414 -27.42578,-8.65625 -8.06725,-3.84725 -14.30244,-8.93141 -18.70313,-15.25195 -4.1974,-6.04569 -5.11417,-13.60331 -2.7539,-22.67188 2.14568,-8.24417 6.57316,-14.70132 13.28515,-19.37304 6.9868,-4.67169 16.12643,-8.10625 27.41602,-10.30469 -0.97872,1.64882 -2.96641,4.53418 -5.96289,8.65625 -2.65015,3.8473 -4.87013,9.20605 -6.65821,16.07617 -2.00264,7.69455 -1.1388,13.87715 2.5918,18.54883 3.7306,4.67169 8.70912,8.24355 14.93555,10.7168 6.22642,2.47324 12.83991,3.98557 19.84179,4.53515 7.20518,0.82443 13.14473,1.23633 17.81641,1.23633 3.02286,0 7.28752,-0.5492 12.79492,-1.64844 5.7822,-1.0992 11.5698,-2.74882 17.36328,-4.94726 5.79349,-2.19844 10.94109,-5.08377 15.44336,-8.65625 4.84859,-3.84726 7.95357,-8.38221 9.3125,-13.60352 1.07285,-4.12206 0.80682,-8.38047 -0.79687,-12.77734 -1.25736,-4.67169 -3.47721,-9.3439 -6.6582,-14.01563 -3.10947,-4.94649 -6.90518,-9.89334 -11.38868,-14.83984 -4.48349,-4.94649 -9.37958,-9.89335 -14.6875,-14.83984 -7.68705,-7.41974 -15.20028,-14.97537 -22.54101,-22.66992 -7.34074,-7.69452 -13.64783,-15.66404 -18.92188,-23.90821 -5.27405,-8.24417 -9.10337,-16.76289 -11.48633,-25.55664 -2.31142,-9.0686 -2.18029,-18.55037 0.39454,-28.44336 3.93376,-15.11429 10.00867,-27.89333 18.22265,-38.33594 8.56031,-10.71741 18.09516,-19.37343 28.60547,-25.96875 10.78513,-6.59531 21.92944,-11.40486 33.4336,-14.42773 11.50415,-3.02283 22.34001,-4.5332 32.50781,-4.5332 h -19.6582 c 0,0 -131.74436,-2.83797 -239.658207,146 z"
         style="fill:#1ce4e4;fill-opacity:1;stroke:none;stroke-width:0;stroke-miterlimit:4;stroke-dasharray:none;stroke-opacity:1" />
      <path
         inkscape:connector-curvature="0"
         id="rect5114"
         transform="scale(0.26458333)"
         d="m 206.14453,551.12695 -22.54297,17.78321 1.8711,28.65625 -23.88282,-15.94727 -26.67578,10.63281 c 0,0 33.81278,36.35635 45.64258,49.07617 2.41191,-4.32446 5.71804,-7.94842 9.91992,-10.87304 6.9868,-4.67169 16.12643,-8.10625 27.41602,-10.30469 -0.97872,1.64882 -2.96641,4.53418 -5.96289,8.65625 -2.65015,3.8473 -4.87013,9.20605 -6.65821,16.07617 -2.00264,7.69455 -1.1388,13.87715 2.5918,18.54883 3.7306,4.67169 8.70912,8.24355 14.93555,10.7168 6.22642,2.47324 12.83992,3.98557 19.84179,4.53515 7.20518,0.82443 13.14473,1.23633 17.81641,1.23633 3.02286,0 7.28752,-0.5492 12.79492,-1.64844 5.7822,-1.0992 11.5698,-2.74882 17.36328,-4.94726 5.79349,-2.19844 10.94109,-5.08377 15.44336,-8.65625 1.12578,-0.89329 2.14624,-1.82751 3.08399,-2.79492 z m 26.51367,146.22266 c 0.60543,0.65098 0.81471,0.8763 1.42383,1.53125 h 21.85156 c -7.55114,0 -15.3113,-0.51511 -23.27539,-1.53125 z"
         style="opacity:1;fill:url(#linearGradient1031);fill-opacity:1;stroke:none;stroke-width:0;stroke-miterlimit:4;stroke-dasharray:none;stroke-opacity:1" />
      <g
         inkscape:export-filename="/home/daniel/shady/data/images/shady_logo_title.png"
         inkscape:export-ydpi="14.959591"
         inkscape:export-xdpi="14.959591"
         id="text12"
         style="font-style:normal;font-weight:normal;font-size:10.58333302px;line-height:1.25;font-family:sans-serif;letter-spacing:0px;word-spacing:0px;fill:#000000;fill-opacity:1;stroke:none;stroke-width:0.26458332"
         transform="matrix(2.1469157,0,-0.55877351,2.1469157,-65.511206,81.331559)"
         aria-label="Shady">
        <path
           sodipodi:nodetypes="ssssscccssccscccccccscccssccscccssscscsssccscsscsccsscccscs"
           inkscape:connector-curvature="0"
           id="path14"
           style="font-style:normal;font-variant:normal;font-weight:normal;font-stretch:normal;font-size:50.79999924px;font-family:Billabong;-inkscape-font-specification:Billabong;stroke-width:0.26458332"
           d="m 83.806848,19.087108 c 0,0.338667 -0.06773,0.6096 -0.2032,0.8128 -0.135467,0.2032 -0.3048,0.3556 -0.508,0.4572 -0.2032,0.1016 -0.4064,0.169334 -0.6096,0.2032 -0.2032,0.03387 -0.372533,0.0508 -0.508,0.0508 -0.541867,0 -0.948267,-0.270933 -1.2192,-0.8128 -0.237067,-0.575733 -0.541867,-1.185333 -0.9144,-1.8288 -0.338667,-0.677333 -0.8636,-1.286933 -1.5748,-1.8288 -0.677333,-0.575733 -1.744133,-0.8636 -3.2004,-0.8636 -0.880533,0 -1.659467,0.186267 -2.3368,0.5588 -0.677333,0.372534 -1.253067,0.846667 -1.7272,1.4224 -0.440267,0.575734 -0.778933,1.2192 -1.016,1.9304 -0.2032,0.677334 -0.3048,1.354667 -0.3048,2.032 0,1.083734 0.186267,2.0828 0.5588,2.9972 0.4064,0.880534 0.9652,1.7272 1.6764,2.54 0.7112,0.778934 1.557867,1.557867 2.54,2.3368 0.982133,0.745067 2.048933,1.540934 3.2004,2.3876 0.982133,0.7112 1.9304,1.439334 2.8448,2.1844 0.948267,0.745067 1.778,1.540934 2.4892,2.3876 0.745067,0.846667 1.337733,1.761067 1.778,2.7432 0.440267,0.948267 0.6604,1.9812 0.6604,3.0988 0,1.253067 -0.3556,2.286 -1.0668,3.0988 -0.677333,0.8128 -1.540933,1.456266 -2.5908,1.930399 -1.049867,0.508 -2.218267,0.846667 -3.5052,1.016 -1.253067,0.2032 -2.472267,0.3048 -3.6576,0.3048 -1.185333,0 -2.4384,-0.1016 -3.7592,-0.3048 -1.3208,-0.2032 -2.54,-0.5588 -3.6576,-1.0668 -1.1176,-0.474133 -2.048933,-1.100666 -2.794,-1.879599 -0.7112,-0.745066 -1.0668,-1.6764 -1.0668,-2.794 0,-1.016 0.338667,-1.811866 1.016,-2.3876 0.7112,-0.575733 1.7272,-0.999066 3.048,-1.27 -0.06773,0.2032 -0.220133,0.5588 -0.4572,1.0668 -0.2032,0.474134 -0.3048,1.134534 -0.3048,1.9812 0,0.948267 0.3048,1.710267 0.9144,2.286 0.6096,0.575734 1.337733,1.016 2.1844,1.3208 0.846667,0.3048 1.710267,0.491067 2.5908,0.5588 0.9144,0.1016 1.659467,0.1524 2.2352,0.1524 0.372533,0 0.880533,-0.06773 1.524,-0.2032 0.677333,-0.135466 1.337733,-0.338666 1.9812,-0.6096 0.643467,-0.270933 1.185333,-0.626533 1.6256,-1.0668 0.474133,-0.474133 0.7112,-1.032933 0.7112,-1.6764 0,-0.508 -0.169333,-1.032933 -0.508,-1.5748 -0.3048,-0.575733 -0.728133,-1.151466 -1.27,-1.7272 -0.541867,-0.6096 -1.1684,-1.2192 -1.8796,-1.8288 -0.7112,-0.6096 -1.4732,-1.2192 -2.286,-1.8288 -1.185333,-0.9144 -2.353733,-1.845733 -3.5052,-2.794 -1.151467,-0.948266 -2.1844,-1.9304 -3.0988,-2.9464 -0.9144,-1.016 -1.659467,-2.065866 -2.2352,-3.1496 -0.575733,-1.1176 -0.8636,-2.286 -0.8636,-3.5052 0,-1.862666 0.338667,-3.437466 1.016,-4.7244 0.7112,-1.3208 1.608667,-2.3876 2.6924,-3.2004 1.1176,-0.8128 2.3368,-1.405466 3.6576,-1.778 1.3208,-0.372533 2.607733,-0.5588 3.8608,-0.5588 0.948267,0 1.9304,0.08467 2.9464,0.254 1.049867,0.135467 1.998133,0.3556 2.8448,0.6604 0.880533,0.270934 1.591733,0.643467 2.1336,1.1176 0.575733,0.440267 0.8636,0.9652 0.8636,1.5748 0,0.474134 -0.169333,0.931334 -0.508,1.3716 -0.3048,0.4064 -0.4572,0.8636 -0.4572,1.3716 z" />
      </g>
      <path
         inkscape:transform-center-y="-0.73509747"
         inkscape:transform-center-x="-0.36957226"
         d="m 49.072716,158.10599 -6.31873,-4.21922 -7.057877,2.81328 2.060121,-7.31328 -4.856592,-5.84309 7.591954,-0.30064 4.056338,-6.4245 2.631965,7.12747 7.363547,1.87253 -5.965311,4.70566 z"
         inkscape:randomized="0"
         inkscape:rounded="0"
         inkscape:flatsided="false"
         sodipodi:arg2="1.6755161"
         sodipodi:arg1="1.0471976"
         sodipodi:r2="5.7207494"
         sodipodi:r1="11.441499"
         sodipodi:cy="148.19736"
         sodipodi:cx="43.351967"
         sodipodi:sides="5"
         id="path5112"
         style="fill:#000000;fill-opacity:1;stroke:none;stroke-width:0;stroke-miterlimit:4;stroke-dasharray:none;stroke-opacity:1"
         sodipodi:type="star" />
    </g>
  </g>
</svg>
