<?xml version="1.0" encoding="UTF-8" standalone="no"?>
<!-- Created with Inkscape (http://www.inkscape.org/) -->

<svg
   xmlns:dc="http://purl.org/dc/elements/1.1/"
   xmlns:cc="http://creativecommons.org/ns#"
   xmlns:rdf="http://www.w3.org/1999/02/22-rdf-syntax-ns#"
   xmlns:svg="http://www.w3.org/2000/svg"
   xmlns="http://www.w3.org/2000/svg"
   xmlns:sodipodi="http://sodipodi.sourceforge.net/DTD/sodipodi-0.dtd"
   xmlns:inkscape="http://www.inkscape.org/namespaces/inkscape"
   width="53"
   height="31.799999"
   viewBox="0 0 14.022917 8.41375"
   version="1.1"
   id="svg8"
   inkscape:version="0.92.1 r"
   sodipodi:docname="shady_logo_title.svg"
   inkscape:export-filename="/home/daniel/shady/data/images/shady_logo_title.png"
   inkscape:export-xdpi="11.218333"
   inkscape:export-ydpi="11.218333">
  <defs
     id="defs2" />
  <sodipodi:namedview
     id="base"
     pagecolor="#ffffff"
     bordercolor="#666666"
     borderopacity="1.0"
     inkscape:pageopacity="0.0"
     inkscape:pageshadow="2"
     inkscape:zoom="5.6"
     inkscape:cx="44.899688"
     inkscape:cy="15.87256"
     inkscape:document-units="mm"
     inkscape:current-layer="layer1"
     showgrid="false"
     inkscape:window-width="1366"
     inkscape:window-height="750"
     inkscape:window-x="0"
     inkscape:window-y="18"
     inkscape:window-maximized="0"
     units="px" />
  <metadata
     id="metadata5">
    <rdf:RDF>
      <cc:Work
         rdf:about="">
        <dc:format>image/svg+xml</dc:format>
        <dc:type
           rdf:resource="http://purl.org/dc/dcmitype/StillImage" />
        <dc:title />
      </cc:Work>
    </rdf:RDF>
  </metadata>
  <g
     inkscape:label="Layer 1"
     inkscape:groupmode="layer"
     id="layer1"
     transform="translate(0,-288.58624)">
    <g
       aria-label="Shady"
       transform="matrix(0.13105755,0,-0.03411009,0.13105755,-6.170857,288.23259)"
       style="font-style:normal;font-weight:normal;font-size:10.58333302px;line-height:1.25;font-family:sans-serif;letter-spacing:0px;word-spacing:0px;fill:#000000;fill-opacity:1;stroke:none;stroke-width:0.26458332"
       id="text12"
       inkscape:export-xdpi="14.959591"
       inkscape:export-ydpi="14.959591"
       inkscape:export-filename="/home/daniel/shady/data/images/shady_logo_title.png">
      <path
         d="m 83.806848,19.087108 c 0,0.338667 -0.06773,0.6096 -0.2032,0.8128 -0.135467,0.2032 -0.3048,0.3556 -0.508,0.4572 -0.2032,0.1016 -0.4064,0.169334 -0.6096,0.2032 -0.2032,0.03387 -0.372533,0.0508 -0.508,0.0508 -0.541867,0 -0.948267,-0.270933 -1.2192,-0.8128 -0.237067,-0.575733 -0.541867,-1.185333 -0.9144,-1.8288 -0.338667,-0.677333 -0.8636,-1.286933 -1.5748,-1.8288 -0.677333,-0.575733 -1.744133,-0.8636 -3.2004,-0.8636 -0.880533,0 -1.659467,0.186267 -2.3368,0.5588 -0.677333,0.372534 -1.253067,0.846667 -1.7272,1.4224 -0.440267,0.575734 -0.778933,1.2192 -1.016,1.9304 -0.2032,0.677334 -0.3048,1.354667 -0.3048,2.032 0,1.083734 0.186267,2.0828 0.5588,2.9972 0.4064,0.880534 0.9652,1.7272 1.6764,2.54 0.7112,0.778934 1.557867,1.557867 2.54,2.3368 0.982133,0.745067 2.048933,1.540934 3.2004,2.3876 0.982133,0.7112 1.9304,1.439334 2.8448,2.1844 0.948267,0.745067 1.778,1.540934 2.4892,2.3876 0.745067,0.846667 1.337733,1.761067 1.778,2.7432 0.440267,0.948267 0.6604,1.9812 0.6604,3.0988 0,1.253067 -0.3556,2.286 -1.0668,3.0988 -0.677333,0.8128 -1.540933,1.456266 -2.5908,1.930399 -1.049867,0.508 -2.218267,0.846667 -3.5052,1.016 -1.253067,0.2032 -2.472267,0.3048 -3.6576,0.3048 -1.185333,0 -2.4384,-0.1016 -3.7592,-0.3048 -1.3208,-0.2032 -2.54,-0.5588 -3.6576,-1.0668 -1.1176,-0.474133 -2.048933,-1.100666 -2.794,-1.879599 -0.7112,-0.745066 -1.0668,-1.6764 -1.0668,-2.794 0,-1.016 0.338667,-1.811866 1.016,-2.3876 0.7112,-0.575733 1.7272,-0.999066 3.048,-1.27 -0.06773,0.2032 -0.220133,0.5588 -0.4572,1.0668 -0.2032,0.474134 -0.3048,1.134534 -0.3048,1.9812 0,0.948267 0.3048,1.710267 0.9144,2.286 0.6096,0.575734 1.337733,1.016 2.1844,1.3208 0.846667,0.3048 1.710267,0.491067 2.5908,0.5588 0.9144,0.1016 1.659467,0.1524 2.2352,0.1524 0.372533,0 0.880533,-0.06773 1.524,-0.2032 0.677333,-0.135466 1.337733,-0.338666 1.9812,-0.6096 0.643467,-0.270933 1.185333,-0.626533 1.6256,-1.0668 0.474133,-0.474133 0.7112,-1.032933 0.7112,-1.6764 0,-0.508 -0.169333,-1.032933 -0.508,-1.5748 -0.3048,-0.575733 -0.728133,-1.151466 -1.27,-1.7272 -0.541867,-0.6096 -1.1684,-1.2192 -1.8796,-1.8288 -0.7112,-0.6096 -1.4732,-1.2192 -2.286,-1.8288 -1.185333,-0.9144 -2.353733,-1.845733 -3.5052,-2.794 -1.151467,-0.948266 -2.1844,-1.9304 -3.0988,-2.9464 -0.9144,-1.016 -1.659467,-2.065866 -2.2352,-3.1496 -0.575733,-1.1176 -0.8636,-2.286 -0.8636,-3.5052 0,-1.862666 0.338667,-3.437466 1.016,-4.7244 0.7112,-1.3208 1.608667,-2.3876 2.6924,-3.2004 1.1176,-0.8128 2.3368,-1.405466 3.6576,-1.778 1.3208,-0.372533 2.607733,-0.5588 3.8608,-0.5588 0.948267,0 1.9304,0.08467 2.9464,0.254 1.049867,0.135467 1.998133,0.3556 2.8448,0.6604 0.880533,0.270934 1.591733,0.643467 2.1336,1.1176 0.575733,0.440267 0.8636,0.9652 0.8636,1.5748 0,0.474134 -0.169333,0.931334 -0.508,1.3716 -0.3048,0.4064 -0.4572,0.8636 -0.4572,1.3716 z"
         style="font-style:normal;font-variant:normal;font-weight:normal;font-stretch:normal;font-size:50.79999924px;font-family:Billabong;-inkscape-font-specification:Billabong;stroke-width:0.26458332"
         id="path14"
         inkscape:connector-curvature="0"
         sodipodi:nodetypes="ssssscccssccscccccccscccssccscccssscscsssccscsscsccsscccscs" />
      <path
         d="m 107.19115,38.810208 q -0.0508,0.7112 -0.4572,2.032 -0.3556,1.27 -1.1176,2.54 -0.7112,1.2192 -1.8796,2.1844 -1.1176,0.9144 -2.7432,0.9144 -1.574801,0 -2.540001,-0.9144 -0.9144,-0.9144 -1.4224,-2.4892 -0.4572,-1.6256 -0.6096,-3.8608 -0.1016,-2.2352 -0.1016,-4.8768 0,-0.4572 0,-1.1176 0,-0.7112 0.0508,-1.2192 -0.6096,1.1176 -1.2192,2.8448 -0.6096,1.6764 -1.1176,3.6068 -0.4572,1.9304 -0.762,3.9624 -0.3048,1.9812 -0.3556,3.7592 -0.508,0.1016 -1.1176,0.254 -0.5588,0.1524 -1.3208,0.1524 -0.3048,0 -0.7112,-0.0508 -0.4064,-0.0508 -0.8128,-0.2032 -0.4064,-0.1524 -0.7112,-0.4064 -0.254,-0.3048 -0.254,-0.762 0,-0.1016 0.1524,-0.4572 0.2032,-0.3556 0.2032,-1.4224 v -29.21 q 0,-0.7112 -0.2032,-0.9652 -0.1524,-0.254 -0.1524,-0.6096 0,-0.2032 0.3556,-0.3048 0.3556,-0.1524 0.8128,-0.2032 0.4572,-0.1016 0.9144,-0.1016 0.508,-0.0508 0.8128,-0.0508 1.3208,0 2.6924,0.5588 -0.254,1.3716 -0.508,3.6576 -0.2032,2.2352 -0.4064,4.6736 -0.2032,2.3876 -0.3048,4.6228 -0.1016,2.1844 -0.1016,3.4036 0,0.1524 0,0.4064 0,0.2032 -0.0508,1.1684 0,0.9144 -0.0508,2.8956 0,1.9812 -0.0508,5.588 0,-0.0508 0.2032,-0.9652 0.254,-0.9144 0.6096,-2.286 0.3556,-1.3716 0.8128,-2.9464 0.508,-1.5748 1.016,-2.8956 0.5588,-1.3716 1.1176,-2.2352 0.5588,-0.9144 1.0668,-0.9144 0.5588,0 1.524,0.254 1.016,0.2032 1.27,0.762 0.2032,0.6096 0.406401,0.8636 0.254,0.254 0.4064,0.4064 0.2032,0.1524 0.3048,0.3048 0.1524,0.1524 0.1524,0.4572 -0.0508,0.1524 -0.254,1.016 -0.1524,0.8636 -0.3556,2.1844 -0.1524,1.27 -0.3048,2.8448 -0.152401,1.524 -0.152401,3.048 0,2.032 0.355601,3.5052 0.3556,1.4732 1.3716,1.4732 1.016,0 1.6764,-0.6096 0.6604,-0.6096 1.0668,-1.524 0.4572,-0.9144 0.6604,-1.9304 0.254,-1.0668 0.4064,-1.8796 0.254,-1.0668 0.762,-1.0668 0.5588,0 0.762,0.4064 0.254,0.4064 0.254,1.0668 z"
         style="font-style:normal;font-variant:normal;font-weight:normal;font-stretch:normal;font-size:50.79999924px;font-family:Billabong;-inkscape-font-specification:Billabong;stroke-width:0.26458332"
         id="path16"
         inkscape:connector-curvature="0" />
      <path
         d="m 124.95369,40.486608 q -0.1016,0.7112 -0.508,1.6764 -0.4064,0.9652 -1.0668,1.8796 -0.6096,0.8636 -1.4732,1.4732 -0.8128,0.6096 -1.8288,0.6096 -1.524,0 -2.6924,-1.1684 -1.1176,-1.1684 -1.3716,-3.302 -0.3048,0.8128 -0.7112,1.8796 -0.4064,1.0668 -1.016,1.9812 -0.6096,0.9144 -1.4224,1.524 -0.762,0.6604 -1.8288,0.6604 -0.3048,0 -0.4572,-0.0508 -0.1524,-0.0508 -0.3556,-0.1524 -0.1524,-0.0508 -0.4064,-0.1016 -0.2032,-0.0508 -0.6096,-0.0508 -1.2192,0 -2.0828,-0.8128 -0.8128,-0.762 -1.3208,-1.9812 -0.508,-1.2192 -0.762,-2.6416 -0.2032,-1.4732 -0.2032,-2.7432 0,-3.048 0.3048,-5.7912 0.3556,-2.7432 1.1176,-4.826 0.762,-2.1336 1.9812,-3.3528 1.2192,-1.27 2.9464,-1.27 1.016,0 1.524,0.2032 0.5588,0.1524 1.016,0.4064 0.4572,0.2032 0.9652,0.4572 0.5588,0.254 1.524,0.4064 1.0668,0.6096 1.4732,1.4732 0.4572,0.8128 0.5588,1.778 0.1524,0.9652 0.1016,2.032 -0.0508,1.016 0.1016,2.032 0,0.0508 0.2032,0.1524 0.254,0.1016 0.5588,0.254 0.3048,0.1016 0.508,0.3556 0.254,0.2032 0.254,0.5588 v 0.2032 q -0.508,1.3208 -0.6096,2.3368 -0.1016,1.016 -0.1016,2.4384 0,0.7112 0.0508,1.5748 0.1016,0.8128 0.254,1.5748 0.2032,0.7112 0.5588,1.2192 0.3556,0.4572 0.9144,0.4572 0.6096,0 1.0668,-0.6096 0.508,-0.6096 0.8128,-1.3716 0.3556,-0.8128 0.5588,-1.6256 0.254,-0.8128 0.3048,-1.2192 0.1016,-0.6096 0.508,-0.6096 0.254,0 0.4572,0.3048 0.254,0.254 0.254,0.9652 0,0.2032 0,0.4064 0,0.1524 -0.0508,0.4064 z m -9.398,-8.2296 q 0,-0.5588 -0.1016,-1.3208 -0.1016,-0.762 -0.3556,-1.4224 -0.254,-0.6604 -0.762,-1.1176 -0.508,-0.4572 -1.3716,-0.4572 -1.4224,0 -2.3368,1.3208 -0.8636,1.27 -1.3716,3.048 -0.508,1.7272 -0.6604,3.6068 -0.1524,1.8288 -0.1524,2.8956 0,0.8128 0.0508,1.9812 0.1016,1.1176 0.3048,2.1336 0.2032,1.016 0.5588,1.7272 0.4064,0.7112 1.016,0.7112 1.4732,0 2.2352,-1.1176 0.8128,-1.1684 1.2192,-2.8448 0.4064,-1.7272 0.5588,-3.6576 0.2032,-1.9812 0.3556,-3.6068 0.1016,-0.8636 0.4572,-1.0668 0.3556,-0.254 0.3556,-0.3556 z"
         style="font-style:normal;font-variant:normal;font-weight:normal;font-stretch:normal;font-size:50.79999924px;font-family:Billabong;-inkscape-font-specification:Billabong;stroke-width:0.26458332"
         id="path18"
         inkscape:connector-curvature="0" />
      <path
         d="m 144.17037,37.337008 q -0.1016,1.1176 -0.4572,2.54 -0.3048,1.4224 -0.9652,2.6924 -0.6096,1.27 -1.6764,2.1336 -1.016,0.8636 -2.4892,0.8636 -2.1844,0 -3.2004,-1.016 -0.9652,-1.016 -1.6256,-3.1496 l -0.0508,0.254 q -0.2032,0.8128 -0.508,1.778 -0.254,0.9652 -0.762,1.778 -0.4572,0.762 -1.1684,1.27 -0.7112,0.5588 -1.8288,0.5588 -0.762,0 -1.524,-0.3048 -0.7112,-0.254 -1.524,-0.6604 -1.1684,-0.6096 -1.8288,-1.6256 -0.6604,-1.016 -0.9652,-2.0828 -0.3048,-1.0668 -0.3556,-2.032 -0.0508,-1.016 -0.0508,-1.5748 v -0.8636 q 0,-0.3048 0.1524,-1.3208 0.1524,-1.016 0.4572,-2.3368 0.3556,-1.3716 0.8128,-2.8448 0.508,-1.4732 1.1684,-2.6924 0.7112,-1.2192 1.5748,-2.032 0.9144,-0.8128 2.032,-0.8128 1.2192,0 2.3368,0.4064 1.1684,0.4064 1.6764,0.6096 0.0508,-0.9144 0.0508,-2.2352 0.0508,-1.3208 0.0508,-2.5908 0.0508,-1.3208 0.0508,-2.4384 0,-1.1176 0,-1.6764 0,-1.3208 -0.0508,-2.2352 -0.0508,-0.9652 -0.2032,-1.6256 -0.1016,-0.6604 -0.254,-1.0668 -0.1524,-0.4064 -0.3556,-0.7112 0.8636,-0.254 1.6764,-0.3556 0.8636,-0.1016 1.5748,-0.1016 1.1684,0 1.778,0.2032 0.6604,0.1524 0.6604,0.8636 0,0.3048 -0.1524,1.778 -0.1524,1.4732 -0.3048,3.8608 -0.1524,2.3368 -0.3048,5.4356 -0.1524,3.0988 -0.1524,6.604 v 5.1308 q 0,1.4224 0.0508,2.7432 0.0508,1.27 0.2032,2.286 0.2032,0.9652 0.5588,1.5748 0.3556,0.5588 1.016,0.5588 1.4732,0 2.1844,-1.6764 0.762,-1.7272 1.2192,-5.3848 0.0508,-0.4064 0.2032,-0.7112 0.1524,-0.3048 0.6604,-0.3048 0.4572,0 0.5588,0.6096 0.1524,0.5588 0.1016,1.1176 z m -10.7188,-7.366 q 0,-0.1524 -0.254,-0.3556 -0.2032,-0.2032 -0.5588,-0.4064 -0.3048,-0.2032 -0.6604,-0.3556 -0.3556,-0.1524 -0.6096,-0.1524 -1.016,0 -1.8288,1.27 -0.762,1.2192 -1.3208,3.048 -0.508,1.8288 -0.762,3.9116 -0.254,2.0828 -0.254,3.7084 0,0.6096 0.0508,1.4224 0.0508,0.8128 0.254,1.524 0.2032,0.7112 0.5588,1.2192 0.3556,0.508 0.9652,0.508 0.6604,0 1.2192,-0.762 0.5588,-0.762 1.016,-1.9812 0.4572,-1.2192 0.8128,-2.7432 0.4064,-1.524 0.6604,-2.9972 0.3048,-1.524 0.4572,-2.8448 0.1524,-1.3716 0.2032,-2.1844 z"
         style="font-style:normal;font-variant:normal;font-weight:normal;font-stretch:normal;font-size:50.79999924px;font-family:Billabong;-inkscape-font-specification:Billabong;stroke-width:0.26458332"
         id="path20"
         inkscape:connector-curvature="0" />
      <path
         d="m 157.83557,45.719008 q 0,0.4064 -0.2032,0.5588 -0.2032,0.1524 -0.4572,0.2032 -0.254,0.0508 -0.5588,0.0508 -0.254,0.0508 -0.3556,0.2032 v 8.077199 q 0,0.9652 -0.0508,2.0828 0,1.1684 -0.2032,2.286 -0.2032,1.1176 -0.6604,2.0828 -0.4064,0.9652 -1.2192,1.5748 -0.0508,0.0508 -0.3556,0.2032 -0.254,0.2032 -0.6096,0.4064 -0.3048,0.254 -0.6096,0.4572 -0.3048,0.2032 -0.4064,0.254 -0.7112,0.4572 -1.1684,1.0668 -0.4064,0.6096 -1.0668,0.6096 -0.254,0 -0.4064,-0.0508 -0.1016,0 -0.254,-0.0508 -0.1016,-0.0508 -0.3556,-0.1524 -0.2032,-0.0508 -0.6096,-0.1524 -2.286,-0.4572 -3.2004,-1.3716 -0.8636,-0.8636 -0.8636,-2.8448 0,-2.032 0.6096,-4.2164 0.6096,-2.1844 1.6764,-4.2164 1.0668,-2.032 2.54,-3.81 1.4732,-1.727199 3.2004,-2.946399 v -6.5024 q -0.254,0.9652 -0.6096,2.2352 -0.3556,1.27 -0.9144,2.3876 -0.508,1.1176 -1.2192,1.8796 -0.7112,0.762 -1.6764,0.762 -0.8636,0 -1.8796,-0.6096 -1.016,-0.6096 -1.8288,-1.2192 -0.6096,-0.508 -0.9652,-1.5748 -0.3556,-1.1176 -0.5588,-2.3368 -0.1524,-1.2192 -0.2032,-2.3368 -0.0508,-1.1176 -0.0508,-1.6256 0,-1.9812 0.0508,-4.1148 0.0508,-2.1844 0.254,-4.0132 0.2032,-1.8288 0.6096,-2.9972 0.4064,-1.2192 1.0668,-1.2192 0.2032,0 0.8128,0.1016 0.6096,0.1016 1.27,0.3556 0.6604,0.2032 1.1684,0.6096 0.508,0.3556 0.508,0.9144 0,0.1524 -0.1524,0.254 -0.1016,0.0508 -0.2032,0.1524 -0.3048,0.2032 -0.5588,0.8128 -0.254,0.5588 -0.4572,1.6764 -0.1524,1.0668 -0.254,2.8448 -0.1016,1.7272 -0.1016,4.2672 0,3.81 0.254,5.4356 0.3048,1.6256 1.1684,1.6256 0.9144,0 1.6256,-1.3716 0.762,-1.3716 1.3716,-3.6068 0.6096,-2.2352 1.1176,-5.08 0.508,-2.8448 0.9144,-5.7404 0.508,0 1.1176,0.0508 0.6604,0.0508 1.2192,0.2032 0.6096,0.1524 1.016,0.4064 0.4064,0.2032 0.4064,0.6096 0,0.254 -0.3048,0.3556 v 15.0368 q 0.5588,0.0508 1.0668,0.254 0.508,0.1524 0.508,0.8128 z m -5.588,2.489199 q -1.2192,0.9652 -2.1844,2.4892 -0.9652,1.524 -1.6764,3.2004 -0.6604,1.7272 -1.016,3.4036 -0.3556,1.6764 -0.3556,2.8956 0,0.254 0,0.8128 0.0508,0.6096 0.254,1.1684 0.2032,0.5588 0.5588,0.9652 0.4064,0.4572 1.1684,0.4572 1.1176,0 1.7272,-1.2192 0.6604,-1.1684 0.9652,-2.794 0.3556,-1.5748 0.4572,-3.2004 0.1016,-1.5748 0.1016,-2.3368 v -0.2032 z"
         style="font-style:normal;font-variant:normal;font-weight:normal;font-stretch:normal;font-size:50.79999924px;font-family:Billabong;-inkscape-font-specification:Billabong;stroke-width:0.26458332"
         id="path22"
         inkscape:connector-curvature="0" />
    </g>
  </g>
</svg>
