<?xml version="1.0" encoding="UTF-8" standalone="no"?>
<!-- Created with Inkscape (http://www.inkscape.org/) -->

<svg
   xmlns:dc="http://purl.org/dc/elements/1.1/"
   xmlns:cc="http://creativecommons.org/ns#"
   xmlns:rdf="http://www.w3.org/1999/02/22-rdf-syntax-ns#"
   xmlns:svg="http://www.w3.org/2000/svg"
   xmlns="http://www.w3.org/2000/svg"
   xmlns:xlink="http://www.w3.org/1999/xlink"
   xmlns:sodipodi="http://sodipodi.sourceforge.net/DTD/sodipodi-0.dtd"
   xmlns:inkscape="http://www.inkscape.org/namespaces/inkscape"
   width="100mm"
   height="100mm"
   viewBox="0 0 100 100"
   version="1.1"
   id="svg8"
   sodipodi:docname="shady_logo_alt_white.svg"
   inkscape:export-filename="/home/daniel/non-work/shady/data/images/shady_logo_header_bar_alt.png"
   inkscape:export-xdpi="8.1280003"
   inkscape:export-ydpi="8.1280003"
   inkscape:version="0.92.4 5da689c313, 2019-01-14">
  <defs
     id="defs2">
    <linearGradient
       id="linearGradient4607"
       inkscape:collect="always">
      <stop
         id="stop4603"
         offset="0"
         style="stop-color:#ffffff;stop-opacity:1" />
      <stop
         id="stop4605"
         offset="1"
         style="stop-color:#000000;stop-opacity:0;" />
    </linearGradient>
    <linearGradient
       inkscape:collect="always"
       id="linearGradient4565">
      <stop
         style="stop-color:#000000;stop-opacity:1;"
         offset="0"
         id="stop4561" />
      <stop
         style="stop-color:#000000;stop-opacity:0;"
         offset="1"
         id="stop4563" />
    </linearGradient>
    <linearGradient
       id="linearGradient4540"
       inkscape:collect="always">
      <stop
         style="stop-color:#ff0066;stop-opacity:1"
         offset="0"
         id="stop4557" />
      <stop
         style="stop-color:#cc00ff;stop-opacity:1"
         offset="0.33333334"
         id="stop4549" />
      <stop
         id="stop4555"
         offset="0.5"
         style="stop-color:#0066ff;stop-opacity:1" />
      <stop
         id="stop4551"
         offset="0.66666669"
         style="stop-color:#66ff00;stop-opacity:1" />
      <stop
         style="stop-color:#ffcc00;stop-opacity:1"
         offset="0.83333331"
         id="stop4553" />
      <stop
         id="stop4546"
         offset="1"
         style="stop-color:#ff0000;stop-opacity:1" />
    </linearGradient>
    <linearGradient
       inkscape:collect="always"
       xlink:href="#linearGradient4540"
       id="linearGradient4542"
       x1="89.401657"
       y1="145.02386"
       x2="58.799294"
       y2="26.924139"
       gradientUnits="userSpaceOnUse" />
    <linearGradient
       inkscape:collect="always"
       xlink:href="#linearGradient4565"
       id="linearGradient4567"
       x1="99.570648"
       y1="88.10244"
       x2="54.363167"
       y2="66.281639"
       gradientUnits="userSpaceOnUse" />
    <linearGradient
       inkscape:collect="always"
       xlink:href="#linearGradient4607"
       id="linearGradient4582"
       gradientUnits="userSpaceOnUse"
       x1="99.570648"
       y1="88.10244"
       x2="54.363167"
       y2="66.281639" />
  </defs>
  <sodipodi:namedview
     id="base"
     pagecolor="#ffffff"
     bordercolor="#666666"
     borderopacity="1.0"
     inkscape:pageopacity="0.0"
     inkscape:pageshadow="2"
     inkscape:zoom="1.4"
     inkscape:cx="244.52875"
     inkscape:cy="322.99524"
     inkscape:document-units="mm"
     inkscape:current-layer="g4580"
     showgrid="false"
     inkscape:window-width="2880"
     inkscape:window-height="1492"
     inkscape:window-x="0"
     inkscape:window-y="54"
     inkscape:window-maximized="1" />
  <metadata
     id="metadata5">
    <rdf:RDF>
      <cc:Work
         rdf:about="">
        <dc:format>image/svg+xml</dc:format>
        <dc:type
           rdf:resource="http://purl.org/dc/dcmitype/StillImage" />
        <dc:title></dc:title>
      </cc:Work>
    </rdf:RDF>
  </metadata>
  <g
     inkscape:label="Layer 1"
     inkscape:groupmode="layer"
     id="layer1"
     transform="translate(0,-197)">
    <g
       id="g4580"
       transform="matrix(0.9066114,0,0,0.9066114,-42.211744,167.76585)">
      <path
         inkscape:connector-curvature="0"
         id="path4529"
         d="m 112.71085,139.87263 c -0.15447,-0.15447 -2.36706,-0.48239 -8.14413,-1.20702 -1.22661,-0.15386 -4.14708,-0.37613 -6.489925,-0.49395 -3.1051,-0.15614 -4.48868,-0.3326 -5.10439,-0.651 -1.02793,-0.53156 -2.0315,-1.95579 -2.6141,-3.70983 l -0.43472,-1.30883 -0.4723,0.90475 -0.47231,0.90474 -0.0868,-1.30892 -0.0868,-1.30892 -0.92604,0.78624 c -0.50932,0.43244 -1.15669,0.96192 -1.4386,1.17663 -0.54542,0.41541 -0.54607,0.43062 0.0429,-1.01387 0.0776,-0.19026 -0.30957,-0.0401 -0.86033,0.33363 -0.55075,0.37375 -1.05613,0.62479 -1.12306,0.55787 -0.0669,-0.0669 0.005,-0.48496 0.15973,-0.92895 0.26844,-0.77005 0.24851,-0.80724 -0.43243,-0.80689 -0.39262,2e-4 -1.72588,0.17863 -2.9628,0.39651 -2.75815,0.48585 -2.65187,0.49616 -1.85209,-0.17968 l 0.66146,-0.55896 -1.91823,0.15549 c -1.05502,0.0855 -1.91444,0.0731 -1.90981,-0.0275 0.005,-0.10068 0.18322,-0.41416 0.39687,-0.69664 0.21366,-0.28247 0.38846,-0.60042 0.38846,-0.70654 0,-0.10613 -0.7739,-0.27584 -1.71979,-0.37713 -0.94588,-0.1013 -1.71979,-0.25023 -1.71979,-0.33096 0,-0.0807 0.18639,-0.35273 0.41419,-0.60445 0.38479,-0.42518 0.33804,-0.47054 -0.65851,-0.6389 l -1.0727,-0.18124 0.74577,-1.10172 c 1.25719,-1.8572 1.25209,-1.83621 0.40591,-1.67334 -0.41838,0.0805 -1.29648,0.21606 -1.951326,0.30117 -1.188397,0.15446 -1.189265,0.15397 -0.463021,-0.25887 0.400182,-0.22749 0.727604,-0.46062 0.727604,-0.51807 0,-0.0574 -0.667194,-0.40989 -1.482656,-0.78322 -1.616678,-0.74014 -4.866488,-2.82242 -5.390648,-3.45399 -0.260784,-0.31422 -0.02056,-0.28947 1.171871,0.12079 l 1.499898,0.51604 -1.203617,-1.1157 c -1.404726,-1.30211 -2.917403,-3.74223 -3.466875,-5.59246 -0.444484,-1.49671 -0.345865,-1.75933 0.405361,-1.07948 0.750908,0.67956 0.864659,0.39812 0.384338,-0.95092 -0.544027,-1.52796 -2.118656,-7.71566 -2.350239,-9.23554 l -0.181413,-1.19063 0.577496,0.87099 c 0.727641,1.09744 0.866054,0.96475 0.527131,-0.50534 -0.147012,-0.63767 -0.270205,-1.43593 -0.273762,-1.77391 l -0.0065,-0.61452 0.721276,0.56736 c 0.396701,0.31204 0.759412,0.45294 0.806024,0.31311 0.04661,-0.13984 -0.207725,-1.309237 -0.565192,-2.598677 -0.357467,-1.28943 -0.849443,-3.29692 -1.093281,-4.46109 -0.243838,-1.16417 -0.507458,-2.35479 -0.585823,-2.64583 -0.128019,-0.47545 -0.06843,-0.46203 0.586984,0.13229 l 0.729467,0.66146 -0.194377,-1.05834 C 61.718399,87.45261 61.521306,84.96404 61.883981,84.97002 c 0.109141,0.002 0.474847,0.42985 0.81268,0.95121 0.337834,0.52137 0.656448,0.90573 0.708034,0.85415 0.05159,-0.0516 -0.141688,-0.79131 -0.429496,-1.64383 -0.287808,-0.85251 -0.48736,-2.01166 -0.44345,-2.57588 l 0.07984,-1.02586 1.058334,1.46918 c 0.742709,1.03102 1.119254,1.36598 1.262609,1.12315 1.68583,-2.85561 2.562645,-4.09522 4.682726,-6.62027 4.652917,-5.541696 6.457197,-8.460124 7.816687,-12.643456 0.92117,-2.834577 1.61893,-4.233334 2.11174,-4.233334 0.29143,0 0.34512,0.208778 0.22109,0.859896 l -0.16379,0.859896 0.73477,-0.661458 c 0.40413,-0.363802 0.95661,-1.018646 1.22775,-1.455209 l 0.49298,-0.79375 0.001,0.727604 c 5.3e-4,0.400183 0.10717,0.727605 0.23696,0.727605 0.12978,0 0.8656,-0.565547 1.63516,-1.256771 5.84903,-5.253675 6.15837,-13.938485 0.79191,-22.233927 -0.59162,-0.914416 -1.07561,-1.691468 -1.07561,-1.726784 0,-0.03532 0.50602,-0.02426 1.12448,0.02456 0.8401,0.06632 1.02411,0.01893 0.7276,-0.187394 -0.21828,-0.151892 -0.635,-0.279814 -0.92604,-0.28427 -0.29104,-0.0045 -0.70776,-0.126123 -0.92604,-0.270369 -0.66922,-0.442237 2.56332,0.01687 4.97614,0.70674 1.20891,0.345652 2.78649,0.926657 3.50573,1.291125 0.71924,0.364467 1.30771,0.545789 1.30771,0.402937 0,-0.142853 -0.24832,-0.39263 -0.55183,-0.555061 -1.1855,-0.634461 -0.20496,-0.49799 1.87438,0.260874 2.43261,0.887792 4.63456,2.054517 6.194715,3.282329 l 1.03498,0.814505 -0.16347,-1.180603 -0.16347,-1.180602 0.54269,1.190625 c 1.5055,3.302962 3.82761,11.521669 4.3668,15.455511 0.16484,1.202587 0.1793,1.218446 0.69122,0.757745 0.28757,-0.258802 0.87374,-1.065861 1.3026,-1.793465 l 0.77973,-1.322916 -0.17989,1.455208 c -0.28081,2.271493 -1.36293,5.718963 -2.64794,8.435946 -0.64585,1.365552 -1.17427,2.530554 -1.17427,2.588895 0,0.05834 0.37304,-0.318789 0.82896,-0.838063 0.45593,-0.519273 0.88373,-0.889375 0.95065,-0.822446 0.0669,0.06693 -0.42517,1.330857 -1.09354,2.808734 -0.66838,1.477878 -1.21346,2.766568 -1.2113,2.863763 0.002,0.09719 0.42419,-0.299537 0.93783,-0.881621 l 0.93389,-1.058333 -0.17582,0.926042 c -0.28058,1.477885 -1.5195,3.970411 -2.8275,5.688541 -0.66471,0.873125 -1.16285,1.633416 -1.10698,1.689537 0.0559,0.05612 1.25338,-0.469591 2.66115,-1.168249 2.3317,-1.157193 2.93872,-1.635533 6.81793,-5.372667 2.85542,-2.75083 4.35954,-4.396729 4.5655,-4.99583 0.39892,-1.160383 1.46614,-2.760747 2.82176,-4.231418 1.20805,-1.310587 2.22507,-1.928664 3.17354,-1.928664 0.34847,0 0.86012,-0.250315 1.13699,-0.556255 0.67967,-0.751022 1.78479,-1.295829 2.62854,-1.295829 1.48201,0 2.82089,2.308149 3.76018,6.482292 0.28348,1.259724 0.59388,1.974712 0.97052,2.235494 0.30456,0.210875 1.31148,1.103844 2.2376,1.984375 4.06808,3.867824 6.3541,8.651859 6.88536,14.409285 0.19631,2.12744 0.34051,2.60191 1.22751,4.03896 0.93289,1.5114 0.97822,1.67562 0.63125,2.2867 -0.61986,1.0917 -1.65279,1.66417 -3.44089,1.907003 -0.93248,0.12664 -2.2312,0.42568 -2.88605,0.66454 -0.65483,0.23886 -2.05759,0.5007 -3.11723,0.58186 -1.05964,0.0812 -1.9793,0.23281 -2.0437,0.33701 -0.0644,0.1042 0.50492,0.25372 1.26515,0.33228 3.06716,0.31695 5.8193,1.81102 6.19305,3.36204 0.0886,0.36784 0.36629,0.96645 0.61702,1.33025 0.7296,1.05864 0.8381,1.73554 0.53929,3.36464 -0.44731,2.438727 -1.75367,3.634857 -2.88009,2.637057 -0.24266,-0.21495 -0.67932,-0.43357 -0.97036,-0.48582 -0.29104,-0.0523 -0.64526,-0.35886 -0.78714,-0.68134 -0.14189,-0.32248 -0.55861,-0.71123 -0.92605,-0.86389 -0.36743,-0.15266 -0.86027,-0.613757 -1.09519,-1.024657 -0.35617,-0.62302 -0.65558,-0.77417 -1.80256,-0.91001 -1.33166,-0.15772 -1.42127,-0.12557 -2.81549,1.01003 -5.41527,4.410807 -11.98469,6.746717 -16.78427,5.968037 -0.94515,-0.15334 -1.80375,-0.2797 -1.90798,-0.2808 -0.10423,-10e-4 0.0632,0.42636 0.37213,0.94991 0.37994,0.64397 0.60092,1.56409 0.68306,2.84427 0.12186,1.89922 -0.44278,6.66719 -1.1171,9.43299 -0.19513,0.80036 -0.42993,1.78627 -0.52177,2.1909 l -0.16699,0.7357 1.68999,-0.17314 c 1.53079,-0.15684 1.80578,-0.1053 2.91898,0.54708 1.42647,0.83597 1.69435,1.52046 1.12671,2.879 -0.36732,0.87913 -0.76037,1.1804 -2.08056,1.5947 -0.36663,0.11506 -0.41073,0.27411 -0.21719,0.78318 0.40498,1.06517 -0.24849,1.66957 -2.02777,1.87549 -4.23127,0.4897 -6.30008,0.99778 -7.87831,1.93482 -1.72018,1.02133 -2.513535,1.6293 -2.513535,1.92616 0,0.29111 4.394585,0.78736 6.972535,0.78736 1.62775,0 2.48885,-0.11949 2.92618,-0.40604 1.17963,-0.77292 2.31181,-0.95173 3.03322,-0.47904 0.38604,0.25294 1.34351,0.46103 2.32005,0.50423 1.86866,0.0827 2.21051,0.21596 2.21051,0.86199 0,0.24744 0.23812,0.59861 0.52916,0.78037 1.17058,0.73104 0.14618,2.97182 -1.3586,2.97182 -0.27141,0 -0.49348,0.17196 -0.49348,0.38212 0,0.98337 -2.34802,2.47334 -2.94962,1.87173 z"
         style="fill:url(#linearGradient4542);fill-opacity:1;stroke-width:0.26458332" />
      <path
         style="fill:url(#linearGradient4582);fill-opacity:1;stroke-width:0.26458332"
         d="m 112.71085,139.87263 c -0.15447,-0.15447 -2.36706,-0.48239 -8.14413,-1.20702 -1.22661,-0.15386 -4.14708,-0.37613 -6.489925,-0.49395 -3.1051,-0.15614 -4.48868,-0.3326 -5.10439,-0.651 -1.02793,-0.53156 -2.0315,-1.95579 -2.6141,-3.70983 l -0.43472,-1.30883 -0.4723,0.90475 -0.47231,0.90474 -0.0868,-1.30892 -0.0868,-1.30892 -0.92604,0.78624 c -0.50932,0.43244 -1.15669,0.96192 -1.4386,1.17663 -0.54542,0.41541 -0.54607,0.43062 0.0429,-1.01387 0.0776,-0.19026 -0.30957,-0.0401 -0.86033,0.33363 -0.55075,0.37375 -1.05613,0.62479 -1.12306,0.55787 -0.0669,-0.0669 0.005,-0.48496 0.15973,-0.92895 0.26844,-0.77005 0.24851,-0.80724 -0.43243,-0.80689 -0.39262,2e-4 -1.72588,0.17863 -2.9628,0.39651 -2.75815,0.48585 -2.65187,0.49616 -1.85209,-0.17968 l 0.66146,-0.55896 -1.91823,0.15549 c -1.05502,0.0855 -1.91444,0.0731 -1.90981,-0.0275 0.005,-0.10068 0.18322,-0.41416 0.39687,-0.69664 0.21366,-0.28247 0.38846,-0.60042 0.38846,-0.70654 0,-0.10613 -0.7739,-0.27584 -1.71979,-0.37713 -0.94588,-0.1013 -1.71979,-0.25023 -1.71979,-0.33096 0,-0.0807 0.18639,-0.35273 0.41419,-0.60445 0.38479,-0.42518 0.33804,-0.47054 -0.65851,-0.6389 l -1.0727,-0.18124 0.74577,-1.10172 c 1.25719,-1.8572 1.25209,-1.83621 0.40591,-1.67334 -0.41838,0.0805 -1.29648,0.21606 -1.951326,0.30117 -1.188397,0.15446 -1.189265,0.15397 -0.463021,-0.25887 0.400182,-0.22749 0.727604,-0.46062 0.727604,-0.51807 0,-0.0574 -0.667194,-0.40989 -1.482656,-0.78322 -1.616678,-0.74014 -4.866488,-2.82242 -5.390648,-3.45399 -0.260784,-0.31422 -0.02056,-0.28947 1.171871,0.12079 l 1.499898,0.51604 -1.203617,-1.1157 c -1.404726,-1.30211 -2.917403,-3.74223 -3.466875,-5.59246 -0.444484,-1.49671 -0.345865,-1.75933 0.405361,-1.07948 0.750908,0.67956 0.864659,0.39812 0.384338,-0.95092 -0.544027,-1.52796 -2.118656,-7.71566 -2.350239,-9.23554 l -0.181413,-1.19063 0.577496,0.87099 c 0.727641,1.09744 0.866054,0.96475 0.527131,-0.50534 -0.147012,-0.63767 -0.270205,-1.43593 -0.273762,-1.77391 l -0.0065,-0.61452 0.721276,0.56736 c 0.396701,0.31204 0.759412,0.45294 0.806024,0.31311 0.04661,-0.13984 -0.207725,-1.309237 -0.565192,-2.598677 -0.357467,-1.28943 -0.849443,-3.29692 -1.093281,-4.46109 -0.243838,-1.16417 -0.507458,-2.35479 -0.585823,-2.64583 -0.128019,-0.47545 -0.06843,-0.46203 0.586984,0.13229 l 0.729467,0.66146 -0.194377,-1.05834 C 61.718399,87.45261 61.521306,84.96404 61.883981,84.97002 c 0.109141,0.002 0.474847,0.42985 0.81268,0.95121 0.337834,0.52137 0.656448,0.90573 0.708034,0.85415 0.05159,-0.0516 -0.141688,-0.79131 -0.429496,-1.64383 -0.287808,-0.85251 -0.48736,-2.01166 -0.44345,-2.57588 l 0.07984,-1.02586 1.058334,1.46918 c 0.742709,1.03102 1.119254,1.36598 1.262609,1.12315 1.68583,-2.85561 2.562645,-4.09522 4.682726,-6.62027 4.652917,-5.541696 6.457197,-8.460124 7.816687,-12.643456 0.92117,-2.834577 1.61893,-4.233334 2.11174,-4.233334 0.29143,0 0.34512,0.208778 0.22109,0.859896 l -0.16379,0.859896 0.73477,-0.661458 c 0.40413,-0.363802 0.95661,-1.018646 1.22775,-1.455209 l 0.49298,-0.79375 0.001,0.727604 c 5.3e-4,0.400183 0.10717,0.727605 0.23696,0.727605 0.12978,0 0.8656,-0.565547 1.63516,-1.256771 5.84903,-5.253675 6.15837,-13.938485 0.79191,-22.233927 -0.59162,-0.914416 -1.07561,-1.691468 -1.07561,-1.726784 0,-0.03532 0.50602,-0.02426 1.12448,0.02456 0.8401,0.06632 1.02411,0.01893 0.7276,-0.187394 -0.21828,-0.151892 -0.635,-0.279814 -0.92604,-0.28427 -0.29104,-0.0045 -0.70776,-0.126123 -0.92604,-0.270369 -0.66922,-0.442237 2.56332,0.01687 4.97614,0.70674 1.20891,0.345652 2.78649,0.926657 3.50573,1.291125 0.71924,0.364467 1.30771,0.545789 1.30771,0.402937 0,-0.142853 -0.24832,-0.39263 -0.55183,-0.555061 -1.1855,-0.634461 -0.20496,-0.49799 1.87438,0.260874 2.43261,0.887792 4.63456,2.054517 6.194715,3.282329 l 1.03498,0.814505 -0.16347,-1.180603 -0.16347,-1.180602 0.54269,1.190625 c 1.5055,3.302962 3.82761,11.521669 4.3668,15.455511 0.16484,1.202587 0.1793,1.218446 0.69122,0.757745 0.28757,-0.258802 0.87374,-1.065861 1.3026,-1.793465 l 0.77973,-1.322916 -0.17989,1.455208 c -0.28081,2.271493 -1.36293,5.718963 -2.64794,8.435946 -0.64585,1.365552 -1.17427,2.530554 -1.17427,2.588895 0,0.05834 0.37304,-0.318789 0.82896,-0.838063 0.45593,-0.519273 0.88373,-0.889375 0.95065,-0.822446 0.0669,0.06693 -0.42517,1.330857 -1.09354,2.808734 -0.66838,1.477878 -1.21346,2.766568 -1.2113,2.863763 0.002,0.09719 0.42419,-0.299537 0.93783,-0.881621 l 0.93389,-1.058333 -0.17582,0.926042 c -0.28058,1.477885 -1.5195,3.970411 -2.8275,5.688541 -0.66471,0.873125 -1.16285,1.633416 -1.10698,1.689537 0.0559,0.05612 1.25338,-0.469591 2.66115,-1.168249 2.3317,-1.157193 2.93872,-1.635533 6.81793,-5.372667 2.85542,-2.75083 4.35954,-4.396729 4.5655,-4.99583 0.39892,-1.160383 1.46614,-2.760747 2.82176,-4.231418 1.20805,-1.310587 2.22507,-1.928664 3.17354,-1.928664 0.34847,0 0.86012,-0.250315 1.13699,-0.556255 0.67967,-0.751022 1.78479,-1.295829 2.62854,-1.295829 1.48201,0 2.82089,2.308149 3.76018,6.482292 0.28348,1.259724 0.59388,1.974712 0.97052,2.235494 0.30456,0.210875 1.31148,1.103844 2.2376,1.984375 4.06808,3.867824 6.3541,8.651859 6.88536,14.409285 0.19631,2.12744 0.34051,2.60191 1.22751,4.03896 0.93289,1.5114 0.97822,1.67562 0.63125,2.2867 -0.61986,1.0917 -1.65279,1.66417 -3.44089,1.907003 -0.93248,0.12664 -2.2312,0.42568 -2.88605,0.66454 -0.65483,0.23886 -2.05759,0.5007 -3.11723,0.58186 -1.05964,0.0812 -1.9793,0.23281 -2.0437,0.33701 -0.0644,0.1042 0.50492,0.25372 1.26515,0.33228 3.06716,0.31695 5.8193,1.81102 6.19305,3.36204 0.0886,0.36784 0.36629,0.96645 0.61702,1.33025 0.7296,1.05864 0.8381,1.73554 0.53929,3.36464 -0.44731,2.438727 -1.75367,3.634857 -2.88009,2.637057 -0.24266,-0.21495 -0.67932,-0.43357 -0.97036,-0.48582 -0.29104,-0.0523 -0.64526,-0.35886 -0.78714,-0.68134 -0.14189,-0.32248 -0.55861,-0.71123 -0.92605,-0.86389 -0.36743,-0.15266 -0.86027,-0.613757 -1.09519,-1.024657 -0.35617,-0.62302 -0.65558,-0.77417 -1.80256,-0.91001 -1.33166,-0.15772 -1.42127,-0.12557 -2.81549,1.01003 -5.41527,4.410807 -11.98469,6.746717 -16.78427,5.968037 -0.94515,-0.15334 -1.80375,-0.2797 -1.90798,-0.2808 -0.10423,-10e-4 0.0632,0.42636 0.37213,0.94991 0.37994,0.64397 0.60092,1.56409 0.68306,2.84427 0.12186,1.89922 -0.44278,6.66719 -1.1171,9.43299 -0.19513,0.80036 -0.42993,1.78627 -0.52177,2.1909 l -0.16699,0.7357 1.68999,-0.17314 c 1.53079,-0.15684 1.80578,-0.1053 2.91898,0.54708 1.42647,0.83597 1.69435,1.52046 1.12671,2.879 -0.36732,0.87913 -0.76037,1.1804 -2.08056,1.5947 -0.36663,0.11506 -0.41073,0.27411 -0.21719,0.78318 0.40498,1.06517 -0.24849,1.66957 -2.02777,1.87549 -4.23127,0.4897 -6.30008,0.99778 -7.87831,1.93482 -1.72018,1.02133 -2.513535,1.6293 -2.513535,1.92616 0,0.29111 4.394585,0.78736 6.972535,0.78736 1.62775,0 2.48885,-0.11949 2.92618,-0.40604 1.17963,-0.77292 2.31181,-0.95173 3.03322,-0.47904 0.38604,0.25294 1.34351,0.46103 2.32005,0.50423 1.86866,0.0827 2.21051,0.21596 2.21051,0.86199 0,0.24744 0.23812,0.59861 0.52916,0.78037 1.17058,0.73104 0.14618,2.97182 -1.3586,2.97182 -0.27141,0 -0.49348,0.17196 -0.49348,0.38212 0,0.98337 -2.34802,2.47334 -2.94962,1.87173 z"
         id="path4559"
         inkscape:connector-curvature="0" />
      <path
         id="path4531"
         transform="scale(0.26458333)"
         d="m 320.78711,131.79688 c 11.77998,10.66132 23.89125,23.10945 28.71484,32.98632 10.6066,21.71828 5.73901,62.94424 -11.43359,88.70313 -17.17259,25.75889 -62.25613,85.79378 -57.58789,148.02148 2.78769,37.15994 20.3646,73.63135 34.07617,96.99414 1.70833,-0.21853 3.12683,-0.36685 3.7832,-0.36718 2.57364,-10e-4 2.64935,0.14035 1.63477,3.05078 -0.58481,1.67807 -0.85637,3.25691 -0.60352,3.50976 0.25297,0.25293 2.16257,-0.69482 4.24414,-2.10742 2.08162,-1.41252 3.54525,-1.98081 3.25196,-1.26172 -2.22603,5.45949 -2.22354,5.40209 -0.16211,3.83203 1.06548,-0.8115 3.51251,-2.81284 5.4375,-4.44726 l 3.5,-2.97071 0.32812,4.94727 0.32813,4.94727 1.78515,-3.41993 1.78516,-3.41992 1.64258,4.94727 c 2.20195,6.62944 5.99577,12.01244 9.88086,14.02148 2.32709,1.2034 7.5552,1.86885 19.29101,2.45899 8.85486,0.4453 19.89329,1.28567 24.5293,1.86718 21.8346,2.73876 30.19743,3.97868 30.78125,4.5625 2.27376,2.27381 11.14844,-3.35754 11.14844,-7.07422 0,-0.7943 0.83943,-1.44335 1.86523,-1.44335 5.68736,0 9.55901,-8.46944 5.13477,-11.23243 -1.1,-0.68696 -2,-2.01401 -2,-2.94922 0,-2.44168 -1.29282,-2.94524 -8.35547,-3.25781 -3.69086,-0.16327 -7.30853,-0.95025 -8.76758,-1.90625 -2.72659,-1.78654 -7.0064,-1.11072 -11.46484,1.81055 -1.6529,1.08302 -4.90842,1.53516 -11.06055,1.53516 -9.74343,0 -26.35156,-1.87631 -26.35156,-2.97657 0,-1.12199 2.99853,-3.41915 9.5,-7.27929 5.96496,-3.54157 13.78319,-5.46167 29.77539,-7.3125 6.72484,-0.77828 9.19469,-3.06401 7.66406,-7.08985 -0.73149,-1.92404 -0.56537,-2.52411 0.82031,-2.95898 4.9897,-1.56586 6.47694,-2.70465 7.86524,-6.02735 2.14541,-5.13463 1.13162,-7.72128 -4.25977,-10.88085 -4.20737,-2.46569 -5.24558,-2.66115 -11.03125,-2.06836 l -6.38867,0.65429 0.63086,-2.78125 c 0.34711,-1.52931 1.23516,-5.25431 1.97266,-8.27929 2.54861,-10.45342 4.68323,-28.47419 4.22265,-35.65235 -0.31045,-4.83847 -1.14604,-8.3161 -2.58203,-10.75 -1.16761,-1.97877 -1.80019,-3.59362 -1.40625,-3.58984 0.39394,0.004 3.63872,0.48099 7.21094,1.06054 18.14014,2.94305 42.97034,-5.88587 63.4375,-22.55664 5.26949,-4.29203 5.60758,-4.41251 10.64062,-3.8164 4.33505,0.51341 5.46635,1.08473 6.8125,3.43945 0.88789,1.55301 2.74996,3.29411 4.13868,3.87109 1.38875,0.57699 2.96372,2.04681 3.5,3.26563 0.53623,1.21882 1.87656,2.3785 2.97656,2.57617 1.09999,0.19748 2.74887,1.02353 3.66601,1.83594 4.25734,3.77121 9.1961,-0.74956 10.88672,-9.9668 1.12936,-6.15723 0.71848,-8.71564 -2.03906,-12.71679 -0.94764,-1.375 -1.99717,-3.63709 -2.33203,-5.02735 -1.4126,-5.86212 -11.81384,-11.50911 -23.40625,-12.70703 -2.87331,-0.29692 -5.02465,-0.86203 -4.78125,-1.25586 0.2434,-0.39383 3.71772,-0.96849 7.72266,-1.27539 4.00493,-0.30675 9.30825,-1.29644 11.7832,-2.19922 2.47502,-0.90278 7.38387,-2.03308 10.9082,-2.51172 6.75817,-0.91779 10.66113,-3.08092 13.00391,-7.20703 1.31138,-2.30959 1.14112,-2.9302 -2.38477,-8.64258 -3.35244,-5.43137 -3.89866,-7.2249 -4.64062,-15.26562 -2.00791,-21.76035 -10.64802,-39.84044 -26.02344,-54.45899 -3.5003,-3.32799 -7.30594,-6.70299 -8.45703,-7.5 -1.42352,-0.98563 -2.59655,-3.68805 -3.66797,-8.44921 -3.55007,-15.77629 -8.60964,-24.5 -14.21094,-24.5 -3.18897,0 -7.36671,2.05797 -9.93554,4.89648 -1.04644,1.15631 -2.97983,2.10352 -4.29688,2.10352 -3.58477,0 -7.42828,2.33566 -11.99414,7.28906 -5.1236,5.55844 -9.15829,11.60649 -10.66602,15.99219 -0.77843,2.26431 -6.46176,8.48597 -17.2539,18.88281 -14.66158,14.1246 -16.95681,15.93104 -25.76953,20.30469 -5.32071,2.64059 -9.84732,4.62812 -10.0586,4.41601 -0.21116,-0.21211 1.67326,-3.08476 4.18555,-6.38476 4.94362,-6.49372 9.62509,-15.9143 10.68555,-21.5 l 0.66406,-3.5 -3.5293,4 c -1.94131,2.2 -3.53736,3.69936 -3.54492,3.33203 -0.008,-0.36735 2.05196,-5.23854 4.57813,-10.82422 2.52612,-5.58568 4.38566,-10.36227 4.13281,-10.61524 -0.25293,-0.25296 -1.8686,1.14482 -3.5918,3.10743 -1.72316,1.96261 -3.13281,3.38846 -3.13281,3.16796 0,-0.2205 1.99649,-4.62401 4.4375,-9.78515 4.85673,-10.26891 8.94648,-23.29764 10.00781,-31.88281 l 0.67969,-5.5 -2.94727,5 c -1.62089,2.74999 -3.83499,5.79919 -4.92187,6.77734 -1.93482,1.74123 -1.99027,1.68193 -2.61328,-2.86328 -2.03789,-14.86807 -10.81383,-45.93043 -16.50391,-58.41406 l -2.05078,-4.5 0.61719,4.46093 0.61718,4.46289 -3.91211,-3.07812 c -5.89665,-4.64055 -14.21799,-9.05082 -23.41211,-12.40625 -7.85891,-2.86815 -11.56461,-3.38429 -7.08398,-0.98633 1.14713,0.61391 2.08594,1.55774 2.08594,2.09766 0,0.53991 -2.22497,-0.14397 -4.94336,-1.52149 -2.71839,-1.37751 -8.68089,-3.57446 -13.25,-4.88086 -4.73085,-1.35263 -10.2551,-2.45698 -14.16211,-2.98632 z"
         style="fill:#ffffff;stroke-width:0.41688508;stroke:none;stroke-opacity:1"
         inkscape:connector-curvature="0" />
    </g>
  </g>
</svg>
