<?xml version="1.0" encoding="UTF-8" standalone="no"?>
<!-- Created with Inkscape (http://www.inkscape.org/) -->

<svg
   xmlns:osb="http://www.openswatchbook.org/uri/2009/osb"
   xmlns:dc="http://purl.org/dc/elements/1.1/"
   xmlns:cc="http://creativecommons.org/ns#"
   xmlns:rdf="http://www.w3.org/1999/02/22-rdf-syntax-ns#"
   xmlns:svg="http://www.w3.org/2000/svg"
   xmlns="http://www.w3.org/2000/svg"
   xmlns:xlink="http://www.w3.org/1999/xlink"
   xmlns:sodipodi="http://sodipodi.sourceforge.net/DTD/sodipodi-0.dtd"
   xmlns:inkscape="http://www.inkscape.org/namespaces/inkscape"
   width="128mm"
   height="128mm"
   viewBox="0 0 128 128"
   version="1.1"
   id="svg1039"
   sodipodi:docname="shady.svg"
   inkscape:version="0.92.2 5c3e80d, 2017-08-06">
  <defs
     id="defs1033">
    <linearGradient
       id="linearGradient5958"
       osb:paint="solid">
      <stop
         style="stop-color:#000000;stop-opacity:0.53723407;"
         offset="0"
         id="stop5956" />
    </linearGradient>
    <linearGradient
       inkscape:collect="always"
       id="linearGradient1708">
      <stop
         style="stop-color:#44dc00;stop-opacity:1"
         offset="0"
         id="stop1704" />
      <stop
         style="stop-color:#1bffaf;stop-opacity:1"
         offset="1"
         id="stop1706" />
    </linearGradient>
    <linearGradient
       inkscape:collect="always"
       xlink:href="#linearGradient1708"
       id="linearGradient1710"
       x1="185.71484"
       y1="677.30078"
       x2="512.07617"
       y2="1003.6621"
       gradientUnits="userSpaceOnUse"
       gradientTransform="matrix(1.3375801,0,0,1.3375802,-224.78594,-882.32155)" />
    <filter
       y="-0.25"
       height="1.5"
       inkscape:menu-tooltip="Darkens the edge with an inner blur and adds a flexible glow"
       inkscape:menu="Shadows and Glows"
       inkscape:label="Dark and Glow"
       style="color-interpolation-filters:sRGB;"
       id="filter6140">
      <feGaussianBlur
         stdDeviation="5"
         result="result6"
         id="feGaussianBlur6130" />
      <feComposite
         result="result8"
         in="SourceGraphic"
         operator="atop"
         in2="result6"
         id="feComposite6132" />
      <feComposite
         result="result9"
         operator="over"
         in2="SourceAlpha"
         in="result8"
         id="feComposite6134" />
      <feColorMatrix
         values="1 0 0 0 0 0 1 0 0 0 0 0 1 0 0 0 0 0 1 0 "
         result="result10"
         id="feColorMatrix6136" />
      <feBlend
         in="result10"
         mode="normal"
         in2="result6"
         id="feBlend6138" />
    </filter>
    <filter
       inkscape:label="In and Out"
       inkscape:menu="Shadows and Glows"
       inkscape:menu-tooltip="Inner colorized shadow, outer black shadow"
       style="color-interpolation-filters:sRGB;"
       id="filter844">
      <feGaussianBlur
         result="result0"
         in="SourceAlpha"
         stdDeviation="4"
         id="feGaussianBlur838" />
      <feOffset
         dx="0"
         dy="0"
         result="result4"
         id="feOffset840" />
      <feComposite
         in="SourceGraphic"
         in2="result4"
         operator="over"
         result="result3"
         id="feComposite842" />
    </filter>
    <filter
       inkscape:label="Inset"
       inkscape:menu="Shadows and Glows"
       inkscape:menu-tooltip="Shadowy outer bevel"
       style="color-interpolation-filters:sRGB;"
       id="filter860">
      <feMorphology
         result="result1"
         in="SourceAlpha"
         operator="erode"
         radius="2"
         id="feMorphology848" />
      <feGaussianBlur
         stdDeviation="3.6"
         in="result1"
         result="result0"
         id="feGaussianBlur850" />
      <feDiffuseLighting
         surfaceScale="-5"
         id="feDiffuseLighting854"
         diffuseConstant="0">
        <feDistantLight
           elevation="45"
           azimuth="225"
           id="feDistantLight852" />
      </feDiffuseLighting>
      <feComposite
         in2="result0"
         operator="in"
         result="result91"
         id="feComposite856" />
      <feComposite
         in="SourceGraphic"
         in2="result91"
         id="feComposite858" />
    </filter>
  </defs>
  <sodipodi:namedview
     id="base"
     pagecolor="#ffffff"
     bordercolor="#666666"
     borderopacity="1.0"
     inkscape:pageopacity="0.0"
     inkscape:pageshadow="2"
     inkscape:zoom="1"
     inkscape:cx="219.76153"
     inkscape:cy="220.39368"
     inkscape:document-units="mm"
     inkscape:current-layer="layer1"
     showgrid="false"
     inkscape:window-width="1600"
     inkscape:window-height="845"
     inkscape:window-x="0"
     inkscape:window-y="27"
     inkscape:window-maximized="1" />
  <metadata
     id="metadata1036">
    <rdf:RDF>
      <cc:Work
         rdf:about="">
        <dc:format>image/svg+xml</dc:format>
        <dc:type
           rdf:resource="http://purl.org/dc/dcmitype/StillImage" />
        <dc:title />
      </cc:Work>
    </rdf:RDF>
  </metadata>
  <g
     inkscape:label="Layer 1"
     inkscape:groupmode="layer"
     id="layer1"
     transform="translate(0,-169)">
    <path
       style="opacity:1;fill:url(#linearGradient1710);fill-opacity:1;stroke:none;stroke-width:3.49402404;stroke-miterlimit:4;stroke-dasharray:none;stroke-opacity:1"
       d="M 18.271484 18.271484 L 18.271484 428.05469 L 193.60156 258.07617 C 187.31067 250.71898 181.68112 243.18406 176.74414 235.4668 C 169.68968 224.43957 164.56823 213.04558 161.38086 201.2832 C 158.28914 189.15326 158.46611 176.47289 161.91016 163.24023 C 167.17188 143.02365 175.29438 125.9307 186.28125 111.96289 C 197.73132 97.627483 210.48658 86.050311 224.54492 77.228516 C 238.97091 68.406796 253.87986 61.97295 269.26758 57.929688 C 284.65533 53.886425 299.14781 51.863281 312.74805 51.863281 C 323.04008 51.863281 333.46092 52.783223 344.00977 54.621094 C 355.02188 56.091406 364.69313 58.478964 373.02148 61.787109 C 377.42727 63.260785 381.29822 65.01345 384.63672 67.041016 L 428.05469 18.271484 L 18.271484 18.271484 z M 384.63672 67.041016 L 340.59766 111.08008 C 340.3541 110.27115 340.13227 109.47531 339.87109 108.65625 C 338.10874 101.30477 334.13368 94.687812 327.94531 88.806641 C 322.22018 82.55791 311.45407 79.431641 295.64844 79.431641 C 286.09151 79.431641 277.11086 81.452755 268.70703 85.496094 C 260.30321 89.539432 252.71572 94.686816 245.94336 100.93555 C 239.53853 107.18432 234.04496 114.16764 229.46289 121.88672 C 225.3441 129.2382 222.32743 136.58992 220.41406 143.94141 C 217.35271 155.70379 216.55338 166.54811 218.01367 176.47266 C 219.9372 186.02953 223.6102 195.21727 229.0332 204.03906 C 231.3758 207.62769 234.00061 211.21606 236.87305 214.80469 L 340.56055 111.11719 C 342.38184 117.18008 343.79642 123.00709 344.62891 128.50195 C 346.03878 134.38312 349.68327 137.32422 355.56445 137.32422 C 357.03477 137.32422 358.92149 137.14137 361.22266 136.77344 C 363.52375 136.40607 365.91965 135.67111 368.41211 134.56836 C 370.90454 133.46568 373.17443 131.81285 375.21875 129.60742 C 377.2631 127.40192 378.76211 124.46086 379.71875 120.78516 C 381.1538 115.27154 384.10046 110.30731 388.55664 105.89648 C 393.47607 101.11799 396.60405 96.15781 397.94336 91.011719 C 399.66539 84.395353 398.02525 78.696463 393.01953 73.917969 C 390.75393 71.350951 387.95949 69.059208 384.63672 67.041016 z M 465.50781 55.724609 L 268.90039 246.98047 C 271.90008 249.73794 274.83985 252.45168 277.99023 255.31641 C 286.64084 263.03545 294.87555 270.93879 302.69531 279.02539 C 310.88272 287.11203 317.64142 295.75014 322.96875 304.93945 C 328.66373 314.12881 332.51149 324.05127 334.51562 334.71094 C 336.61539 345.00301 336.08675 356.21389 332.92969 368.34375 C 329.38996 381.94404 322.61467 393.15481 312.59961 401.97656 C 302.95208 410.79832 291.76149 417.78367 279.02734 422.92969 C 266.1975 428.44334 252.5594 432.11916 238.11328 433.95703 C 223.93901 436.16246 210.4178 437.26758 197.55273 437.26758 C 184.68763 437.26758 171.37467 436.16246 157.61328 433.95703 C 143.85191 431.7516 131.62462 427.89252 120.92969 422.37891 C 114.55005 419.33646 109.03451 415.7125 104.36914 411.51367 L 55.724609 465.50781 L 465.50781 465.50781 L 465.50781 55.724609 z M 113.4043 64.248047 L 120.96484 102.07227 L 156.41016 117.28711 L 122.77539 136.16797 L 119.25781 174.58008 L 90.908203 148.42383 L 53.289062 156.94922 L 69.404297 121.9043 L 49.669922 88.761719 L 87.980469 93.257812 L 113.4043 64.248047 z M 225.07031 290.8125 L 130.55664 385.32617 C 128.0099 379.77102 127.70626 373.0321 129.78711 365.03711 C 132.1788 355.84783 135.14857 348.67914 138.69336 343.5332 C 142.70141 338.01959 145.3608 334.16051 146.66992 331.95508 C 131.56919 334.89563 119.34541 339.48951 110 345.73828 C 101.02216 351.98705 95.098549 360.62707 92.228516 371.6543 C 89.07148 383.78424 90.299691 393.88996 95.914062 401.97656 C 98.315782 405.42606 101.23298 408.53102 104.45117 411.42969 L 130.50586 385.375 C 131.23619 386.96403 132.14457 388.45853 133.25391 389.84766 C 138.2439 396.09639 144.90408 400.87736 153.23242 404.18555 C 161.56077 407.49365 170.4098 409.51289 179.77539 410.24805 C 189.41288 411.3508 197.35475 411.90234 203.60352 411.90234 C 207.64684 411.90234 213.35021 411.16762 220.7168 409.69727 C 228.45096 408.22695 236.19606 406.02265 243.94531 403.08203 C 251.69457 400.14148 258.5794 396.28037 264.60156 391.50195 C 271.08693 386.35594 275.23699 380.29248 277.05469 373.30859 C 278.48968 367.79498 278.13333 362.09602 275.98828 356.21484 C 274.30647 349.96611 271.34079 343.71951 267.08594 337.4707 C 262.92679 330.85441 257.84665 324.23742 251.84961 317.62109 C 245.85257 311.00477 239.30288 304.38777 232.20312 297.77148 C 229.81087 295.46246 227.43748 293.14152 225.07031 290.8125 z "
       transform="matrix(0.26458333,0,0,0.26458333,0,169)"
       id="path1689" />
    <path
       id="path6106"
       transform="matrix(0.26458333,0,0,0.26458333,0,169)"
       d="M 18.271484 18.271484 L 18.271484 428.05469 L 193.60156 258.07617 C 187.31067 250.71898 181.68112 243.18406 176.74414 235.4668 C 169.68968 224.43957 164.56823 213.04558 161.38086 201.2832 C 158.28914 189.15326 158.46611 176.47289 161.91016 163.24023 C 167.17188 143.02365 175.29438 125.9307 186.28125 111.96289 C 197.73132 97.627483 210.48658 86.050311 224.54492 77.228516 C 238.97091 68.406796 253.87986 61.97295 269.26758 57.929688 C 284.65533 53.886425 299.14781 51.863281 312.74805 51.863281 C 323.04008 51.863281 333.46092 52.783223 344.00977 54.621094 C 355.02188 56.091406 364.69313 58.478964 373.02148 61.787109 C 377.42727 63.260785 381.29822 65.01345 384.63672 67.041016 L 428.05469 18.271484 L 18.271484 18.271484 z M 384.63672 67.041016 L 340.59766 111.08008 C 340.3541 110.27115 340.13227 109.47531 339.87109 108.65625 C 338.10874 101.30477 334.13368 94.687812 327.94531 88.806641 C 322.22018 82.55791 311.45407 79.431641 295.64844 79.431641 C 286.09151 79.431641 277.11086 81.452755 268.70703 85.496094 C 260.30321 89.539432 252.71572 94.686816 245.94336 100.93555 C 239.53853 107.18432 234.04496 114.16764 229.46289 121.88672 C 225.3441 129.2382 222.32743 136.58992 220.41406 143.94141 C 217.35271 155.70379 216.55338 166.54811 218.01367 176.47266 C 219.9372 186.02953 223.6102 195.21727 229.0332 204.03906 C 231.3758 207.62769 234.00061 211.21606 236.87305 214.80469 L 340.56055 111.11719 C 342.38184 117.18008 343.79642 123.00709 344.62891 128.50195 C 346.03878 134.38312 349.68327 137.32422 355.56445 137.32422 C 357.03477 137.32422 358.92149 137.14137 361.22266 136.77344 C 363.52375 136.40607 365.91965 135.67111 368.41211 134.56836 C 370.90454 133.46568 373.17443 131.81285 375.21875 129.60742 C 377.2631 127.40192 378.76211 124.46086 379.71875 120.78516 C 381.1538 115.27154 384.10046 110.30731 388.55664 105.89648 C 393.47607 101.11799 396.60405 96.15781 397.94336 91.011719 C 399.66539 84.395353 398.02525 78.696463 393.01953 73.917969 C 390.75393 71.350951 387.95949 69.059208 384.63672 67.041016 z M 465.50781 55.724609 L 268.90039 246.98047 C 271.90008 249.73794 274.83985 252.45168 277.99023 255.31641 C 286.64084 263.03545 294.87555 270.93879 302.69531 279.02539 C 310.88272 287.11203 317.64142 295.75014 322.96875 304.93945 C 328.66373 314.12881 332.51149 324.05127 334.51562 334.71094 C 336.61539 345.00301 336.08675 356.21389 332.92969 368.34375 C 329.38996 381.94404 322.61467 393.15481 312.59961 401.97656 C 302.95208 410.79832 291.76149 417.78367 279.02734 422.92969 C 266.1975 428.44334 252.5594 432.11916 238.11328 433.95703 C 223.93901 436.16246 210.4178 437.26758 197.55273 437.26758 C 184.68763 437.26758 171.37467 436.16246 157.61328 433.95703 C 143.85191 431.7516 131.62462 427.89252 120.92969 422.37891 C 114.55005 419.33646 109.03451 415.7125 104.36914 411.51367 L 55.724609 465.50781 L 465.50781 465.50781 L 465.50781 55.724609 z M 113.4043 64.248047 L 120.96484 102.07227 L 156.41016 117.28711 L 122.77539 136.16797 L 119.25781 174.58008 L 90.908203 148.42383 L 53.289062 156.94922 L 69.404297 121.9043 L 49.669922 88.761719 L 87.980469 93.257812 L 113.4043 64.248047 z M 225.07031 290.8125 L 130.55664 385.32617 C 128.0099 379.77102 127.70626 373.0321 129.78711 365.03711 C 132.1788 355.84783 135.14857 348.67914 138.69336 343.5332 C 142.70141 338.01959 145.3608 334.16051 146.66992 331.95508 C 131.56919 334.89563 119.34541 339.48951 110 345.73828 C 101.02216 351.98705 95.098549 360.62707 92.228516 371.6543 C 89.07148 383.78424 90.299691 393.88996 95.914062 401.97656 C 98.315782 405.42606 101.23298 408.53102 104.45117 411.42969 L 130.50586 385.375 C 131.23619 386.96403 132.14457 388.45853 133.25391 389.84766 C 138.2439 396.09639 144.90408 400.87736 153.23242 404.18555 C 161.56077 407.49365 170.4098 409.51289 179.77539 410.24805 C 189.41288 411.3508 197.35475 411.90234 203.60352 411.90234 C 207.64684 411.90234 213.35021 411.16762 220.7168 409.69727 C 228.45096 408.22695 236.19606 406.02265 243.94531 403.08203 C 251.69457 400.14148 258.5794 396.28037 264.60156 391.50195 C 271.08693 386.35594 275.23699 380.29248 277.05469 373.30859 C 278.48968 367.79498 278.13333 362.09602 275.98828 356.21484 C 274.30647 349.96611 271.34079 343.71951 267.08594 337.4707 C 262.92679 330.85441 257.84665 324.23742 251.84961 317.62109 C 245.85257 311.00477 239.30288 304.38777 232.20312 297.77148 C 229.81087 295.46246 227.43748 293.14152 225.07031 290.8125 z "
       style="opacity:1;fill:url(#linearGradient1710);fill-opacity:1;stroke:none;stroke-width:3.49402404;stroke-miterlimit:4;stroke-dasharray:none;stroke-opacity:1;" />
  </g>
</svg>
